<svg width="391" height="38" viewBox="0 0 391 38" fill="none" xmlns="http://www.w3.org/2000/svg">
<path d="M250.2 22.3504C250.444 22.3541 250.108 22.3795 249.193 22.4266C248.279 22.4128 247.396 22.369 246.544 22.2952L250.2 22.3504ZM78.6452 19.67C78.8898 19.6127 79.3773 19.6201 80.1076 19.6921C80.8997 19.704 81.6314 19.6846 82.3025 19.6338C82.4244 19.6356 82.3325 19.6647 82.027 19.721C81.7223 19.7164 81.3262 19.7105 80.8388 19.7031C80.4122 19.6967 79.9553 19.6898 79.4678 19.6824C79.0413 19.676 78.7671 19.6718 78.6452 19.67ZM11.1323 28.7073C11.2523 28.831 11.3724 28.9547 11.4924 29.0784C11.6734 29.2031 11.8543 29.3277 12.0353 29.4523C12.0344 29.5132 12.0039 29.5128 11.9439 29.4509C11.8839 29.3891 11.7934 29.3268 11.6724 29.264C11.5524 29.1403 11.4315 29.0775 11.3096 29.0757C11.2496 29.0138 11.2191 29.0134 11.2182 29.0743C10.9763 28.9488 10.8258 28.8246 10.7667 28.7018C10.6458 28.639 10.5253 28.5458 10.4053 28.4221C10.1643 28.2356 10.1957 28.1751 10.4994 28.2407C10.3785 28.1779 10.228 28.0537 10.0479 27.8682C10.168 27.9919 10.2584 28.0542 10.3194 28.0551L10.5894 28.3335C10.6504 28.3344 10.7409 28.3967 10.8609 28.5204C10.9218 28.5213 11.0123 28.5836 11.1323 28.7073ZM6.3323 25.7095C6.33047 25.8313 6.39048 25.8932 6.51234 25.895L6.7824 26.1733C6.72147 26.1724 6.69146 26.1415 6.69238 26.0806L6.69514 25.8978C6.57512 25.7741 6.51602 25.6513 6.51786 25.5294C6.45785 25.4676 6.4283 25.4062 6.42922 25.3452L6.4306 25.2538C6.43152 25.1929 6.49291 25.1634 6.61478 25.1652C6.97302 25.6582 7.24216 25.9974 7.4222 26.183C7.48221 26.2449 7.51222 26.2758 7.51222 26.2758C7.57315 26.2767 7.63362 26.3081 7.69364 26.3699C7.81366 26.4936 7.87368 26.5555 7.87368 26.5555C7.93277 26.6783 7.99232 26.7706 8.05234 26.8324C8.11327 26.8334 8.17374 26.8648 8.23375 26.9266C8.35378 27.0503 8.41334 27.1426 8.41242 27.2036C8.47243 27.2654 8.53244 27.3273 8.59245 27.3891C8.65247 27.451 8.68155 27.5428 8.67972 27.6647L8.58832 27.6633C8.52738 27.6624 8.46691 27.631 8.4069 27.5692C8.2241 27.5664 8.01221 27.4718 7.77124 27.2853C7.77124 27.2853 7.6503 27.2225 7.4084 27.097C7.34931 26.9742 7.19882 26.85 6.95693 26.7245C6.77689 26.5389 6.50775 26.1997 6.14951 25.7067C6.15135 25.5848 6.21228 25.5857 6.3323 25.7095ZM33.0839 15.8741C33.0839 15.8741 32.9616 15.9028 32.717 15.96C32.4723 16.0173 32.2277 16.0745 31.983 16.1318C31.7393 16.1281 31.4955 16.1244 31.2518 16.1207C31.069 16.118 30.9781 16.0861 30.979 16.0252C31.4665 16.0326 31.8321 16.0381 32.0758 16.0418C32.3814 15.9854 32.7174 15.9296 33.0839 15.8741ZM9.99342 19.3653C9.80971 19.4235 9.71785 19.4526 9.71785 19.4526C9.71877 19.3916 9.75015 19.3312 9.812 19.2711C9.87386 19.2111 9.93571 19.1511 9.99756 19.0911C10.0594 19.0311 10.0294 19.0002 9.90754 18.9983C10.214 18.8811 10.3359 18.8829 10.2731 19.0038C10.2104 19.1248 10.1171 19.2453 9.99342 19.3653ZM4.59536 19.6495C4.53351 19.7095 4.47211 19.7391 4.41118 19.7382C4.41118 19.7382 4.38025 19.7682 4.3184 19.8282C4.1947 19.9482 4.13284 20.0082 4.13284 20.0082C4.25655 19.8882 4.44211 19.7082 4.68952 19.4681C4.93693 19.2281 5.24481 19.0194 5.61316 18.8421C5.9215 18.603 6.25939 18.4252 6.62683 18.3089C6.99518 18.1316 7.33261 17.9843 7.63912 17.8671C7.7619 17.808 7.79237 17.8084 7.73051 17.8684C7.73051 17.8684 7.66912 17.898 7.54634 17.9571C7.4854 17.9562 7.33215 18.0148 7.08658 18.133L6.53405 18.3989L5.15065 19.2008C5.02694 19.3208 4.93417 19.4109 4.87231 19.4709C4.81138 19.4699 4.71906 19.5295 4.59536 19.6495ZM1.75509 20.0638C1.63046 20.2447 1.53723 20.3652 1.47537 20.4252C1.41444 20.4243 1.41536 20.3634 1.47813 20.2424C1.53998 20.1824 1.57091 20.1524 1.57091 20.1524C1.57183 20.0915 1.63414 20.001 1.75785 19.881C1.75877 19.82 1.82108 19.7296 1.94478 19.6095C1.9457 19.5486 2.00801 19.4581 2.13172 19.3381L2.41005 19.068C2.47191 19.008 2.50283 18.978 2.50283 18.978C2.50375 18.9171 2.53514 18.8566 2.59699 18.7966L2.87533 18.5265L3.15366 18.2565C3.27645 18.1974 3.43062 18.0778 3.61617 17.8978C3.73896 17.8387 3.8622 17.7491 3.98591 17.6291C4.10777 17.6309 3.82944 17.901 3.1509 18.4393C3.02812 18.4984 2.9358 18.5579 2.87395 18.6179C2.87303 18.6789 2.81118 18.7389 2.68839 18.798C2.62562 18.9189 2.56331 19.0094 2.50145 19.0694C2.44052 19.0685 2.37867 19.1285 2.3159 19.2494C2.19219 19.3695 2.13034 19.4295 2.13034 19.4295C2.06849 19.4895 2.0371 19.55 2.03618 19.6109C2.03618 19.6109 2.00526 19.6409 1.9434 19.7009C1.9434 19.7009 1.91202 19.7614 1.84925 19.8823C1.78739 19.9424 1.75601 20.0028 1.75509 20.0638ZM73.353 6.88275C72.9865 6.93817 72.4376 6.96036 71.7064 6.94932C70.9752 6.93829 70.2136 6.92679 69.4214 6.91484C68.6293 6.90289 67.8676 6.89139 67.1365 6.88036C66.4662 6.87024 65.9797 6.80195 65.6768 6.67549C67.0174 6.69572 68.2355 6.74458 69.3314 6.82206C70.4282 6.83861 71.7687 6.85884 73.353 6.88275ZM8.62832 25.0127C8.80836 25.1983 8.95885 25.3225 9.0798 25.3852L8.9884 25.3839L8.98978 25.2925L8.89838 25.2911L8.80836 25.1983L8.62832 25.0127ZM85.6815 19.8676L85.9557 19.8717L85.6815 19.8676ZM8.9884 25.3839L9.0798 25.3852L8.9884 25.3839ZM8.9884 25.3839L8.98978 25.2925L8.9884 25.3839ZM9.79857 26.2189L9.79995 26.1275L9.79857 26.2189ZM9.70855 26.1261C9.76949 26.127 9.79949 26.1579 9.79857 26.2189C9.79857 26.2189 9.76857 26.1879 9.70855 26.1261ZM8.80836 25.1983L8.89976 25.1997L8.80836 25.1983ZM8.89838 25.2911L8.98978 25.2925C8.92884 25.2915 8.89884 25.2606 8.89976 25.1997L8.89838 25.2911ZM9.61991 25.9419L9.52852 25.9405C9.58945 25.9414 9.61945 25.9724 9.61853 26.0333L9.61991 25.9419C9.49989 25.8182 9.40941 25.7559 9.34848 25.755C9.28846 25.6931 9.19844 25.6003 9.07842 25.4766L9.16982 25.478L9.16844 25.5694L9.25984 25.5708L9.25846 25.6622C9.31939 25.6631 9.34939 25.694 9.34848 25.755L9.43987 25.7563L9.4385 25.8477L9.52989 25.8491L9.4385 25.8477C9.49851 25.9096 9.52852 25.9405 9.52852 25.9405L9.61991 25.9419ZM9.0798 25.3852L9.07842 25.4766L9.0798 25.3852ZM9.61991 25.9419L9.61853 26.0333L9.61991 25.9419ZM9.34848 25.755L9.34985 25.6636L9.25846 25.6622C9.31939 25.6631 9.34939 25.694 9.34848 25.755C9.40941 25.7559 9.43941 25.7868 9.4385 25.8477C9.37848 25.7859 9.34848 25.755 9.34848 25.755ZM9.25846 25.6622L9.25984 25.5708L9.25846 25.6622ZM9.25984 25.5708L9.16844 25.5694L9.25984 25.5708ZM9.07842 25.4766L9.16982 25.478L9.07842 25.4766ZM10.1587 26.59L10.1573 26.6814L10.1587 26.59ZM9.79995 26.1275L9.70855 26.1261L9.79995 26.1275ZM9.07842 25.4766L9.0798 25.3852L9.07842 25.4766ZM9.61853 26.0333L9.70855 26.1261C9.64854 26.0642 9.61853 26.0333 9.61853 26.0333C9.67947 26.0342 9.70947 26.0652 9.70855 26.1261C9.64854 26.0642 9.61853 26.0333 9.61853 26.0333ZM10.606 27.2367C10.606 27.2367 10.636 27.2676 10.696 27.3294C10.6351 27.3285 10.6051 27.2976 10.606 27.2367ZM11.2334 28.0689L11.232 28.1603C11.2329 28.0994 11.2029 28.0685 11.142 28.0675C11.142 28.0675 11.1424 28.0371 11.1434 27.9761C11.1434 27.9761 11.1734 28.0071 11.2334 28.0689ZM10.426 27.0511C10.4869 27.052 10.5169 27.083 10.516 27.1439C10.5769 27.1448 10.6069 27.1757 10.606 27.2367L10.6074 27.1453C10.5464 27.1443 10.516 27.1439 10.516 27.1439C10.5169 27.083 10.4869 27.052 10.426 27.0511ZM11.3234 28.1617L11.232 28.1603L11.322 28.2531L11.3234 28.1617ZM10.426 27.0511L10.4273 26.9597L10.426 27.0511ZM11.3206 28.3445L11.322 28.2531L11.3206 28.3445ZM10.9633 27.7906C11.0242 27.7915 11.0543 27.8224 11.0533 27.8834L10.9633 27.7906ZM10.9647 27.6992C10.8447 27.5755 10.7851 27.4832 10.786 27.4222C10.7851 27.4832 10.7847 27.5136 10.7847 27.5136C10.8456 27.5145 10.8756 27.5455 10.8747 27.6064L10.9647 27.6992ZM11.2334 28.0689C11.1724 28.068 11.1424 28.0371 11.1434 27.9761L11.2334 28.0689ZM11.1447 27.8847L11.0533 27.8834L11.1447 27.8847ZM11.1447 27.8847L11.1434 27.9761C11.0233 27.8524 10.9638 27.7601 10.9647 27.6992C10.9629 27.821 11.0229 27.8829 11.1447 27.8847L11.1434 27.9761L11.1447 27.8847ZM10.696 27.3294C10.6951 27.3904 10.7251 27.4213 10.786 27.4222C10.7251 27.4213 10.6951 27.3904 10.696 27.3294ZM1.93513 20.2493C2.05883 20.1293 2.12114 20.0388 2.12206 19.9779L2.12068 20.0693C2.12068 20.0693 2.05883 20.1293 1.93513 20.2493ZM10.8761 27.515L10.8747 27.6064L10.8761 27.515ZM11.232 28.1603L11.2334 28.0689L11.232 28.1603ZM10.9633 27.7906L10.9647 27.6992L10.8747 27.6064L10.9647 27.6992L10.9633 27.7906ZM9.7972 26.3103L9.79857 26.2189C9.79766 26.2798 9.82766 26.3107 9.88859 26.3116L9.7972 26.3103ZM9.79995 26.1275L9.70855 26.1261L9.79995 26.1275ZM9.97723 26.4958L10.0686 26.4972C10.0077 26.4963 9.97769 26.4654 9.97861 26.4044L9.97723 26.4958ZM9.79857 26.2189L9.70855 26.1261C9.76949 26.127 9.79949 26.1579 9.79857 26.2189ZM9.88859 26.3116C9.88859 26.3116 9.9186 26.3426 9.97861 26.4044L9.88722 26.403L9.88859 26.3116ZM9.79857 26.2189L9.79995 26.1275C9.91814 26.373 10.0377 26.5272 10.1587 26.59L10.0673 26.5886L10.0686 26.4972C9.94861 26.3735 9.85813 26.3112 9.7972 26.3103L9.79857 26.2189ZM10.3387 26.7755L10.2473 26.7742L10.3387 26.7755ZM10.0686 26.4972C10.0077 26.4963 9.97723 26.4958 9.97723 26.4958C9.97815 26.4349 9.94815 26.404 9.88722 26.403C9.88814 26.3421 9.85859 26.2807 9.79857 26.2189C9.79766 26.2798 9.82766 26.3107 9.88859 26.3116L9.88722 26.403L9.97861 26.4044C9.97861 26.4044 10.0086 26.4353 10.0686 26.4972ZM10.3373 26.8669L10.4273 26.9597L10.3373 26.8669ZM10.4273 26.9597L10.426 27.0511L10.4273 26.9597ZM10.3387 26.7755L10.3373 26.8669L10.3387 26.7755ZM10.2473 26.7742L10.2487 26.6828L10.2473 26.7742ZM10.2487 26.6828L10.2473 26.7742L10.4273 26.9597L10.1573 26.6814L10.2487 26.6828ZM10.0673 26.5886L10.0686 26.4972C10.0677 26.5581 10.0673 26.5886 10.0673 26.5886C10.1282 26.5895 10.1582 26.6204 10.1573 26.6814C10.0973 26.6195 10.0673 26.5886 10.0673 26.5886ZM10.606 27.2367C10.486 27.113 10.426 27.0511 10.426 27.0511L10.696 27.3294L10.606 27.2367ZM19.1892 27.9147C18.8827 28.032 18.6072 28.1192 18.3625 28.1765C18.1797 28.1737 18.0878 28.2028 18.0869 28.2638C18.2079 28.3265 18.4216 28.2993 18.7281 28.182C19.0955 28.0657 19.493 27.9802 19.9204 27.9258C19.6139 28.043 19.3383 28.1303 19.0937 28.1875C18.85 28.1839 18.5749 28.2407 18.2683 28.3579C18.0237 28.4152 17.779 28.4724 17.5344 28.5297C17.2897 28.5869 17.0451 28.6442 16.8004 28.7014C16.3102 28.8769 15.8505 29.0528 15.4212 29.2292C15.0537 29.3455 14.7472 29.4628 14.5017 29.581C14.4407 29.58 14.4103 29.5796 14.4103 29.5796C14.4721 29.5196 14.5335 29.49 14.5945 29.4909C14.5954 29.43 14.6263 29.4 14.6872 29.4009C14.7491 29.3409 14.78 29.3109 14.78 29.3109C14.8409 29.3118 14.9023 29.2823 14.9642 29.2223C15.0879 29.1022 15.2416 29.0131 15.4253 28.955C15.609 28.8968 15.7627 28.8077 15.8865 28.6877L16.3434 28.6946C16.6481 28.6991 16.9232 28.6424 17.1688 28.5242C17.5362 28.4078 17.5976 28.3783 17.353 28.4355C17.1092 28.4318 17.0183 28.4 17.0802 28.34C17.5695 28.2255 18.0278 28.141 18.4553 28.0865C18.8837 27.9711 19.373 27.8565 19.9232 27.743C20.106 27.7457 20.1055 27.7762 19.9218 27.8344C19.739 27.8316 19.4948 27.8584 19.1892 27.9147ZM36.4385 23.7869C36.2548 23.845 35.9801 23.8714 35.6145 23.8659C35.7364 23.8677 35.8887 23.87 36.0715 23.8728C36.2543 23.8755 36.3766 23.8469 36.4385 23.7869C36.865 23.7933 37.2006 23.7679 37.4452 23.7106C37.2615 23.7688 36.9564 23.7947 36.5299 23.7883L36.4385 23.7869ZM51.8973 23.1974C49.3363 23.2806 46.8667 23.3653 44.4885 23.4513C42.1103 23.5373 39.7625 23.6237 37.4452 23.7106C42.2645 23.4177 47.1127 23.2166 51.9901 23.1074C54.7949 23.0278 57.5987 23.0092 60.4016 23.0515C63.2054 23.0328 66.0702 23.0151 68.9959 22.9983C69.7271 23.0094 69.9703 23.0435 69.7257 23.1008C69.5429 23.098 69.2082 23.0625 68.7217 22.9942C65.796 23.011 62.9312 23.0287 60.1274 23.0473C57.3845 23.0669 54.6412 23.1169 51.8973 23.1974ZM44.2198 23.0815C44.7691 23.0289 45.318 23.0067 45.8664 23.015C46.4148 23.0232 46.8413 23.0297 47.146 23.0343C46.1101 23.0186 45.2566 23.0362 44.5854 23.087C43.9142 23.1379 43.0907 23.1864 42.1149 23.2326C42.1767 23.1726 42.3905 23.1453 42.756 23.1509C43.1835 23.0964 43.6714 23.0732 44.2198 23.0815ZM47.5116 23.0398C50.8056 22.8457 54.1588 22.7744 57.571 22.8259C60.9841 22.8165 64.6106 22.8103 68.4502 22.8073C65.158 22.8795 61.7749 22.9198 58.3008 22.9283C54.8276 22.8759 51.2312 22.9131 47.5116 23.0398ZM26.2404 21.0732C25.6292 21.1859 25.0795 21.269 24.5911 21.3226C24.1027 21.3762 23.6752 21.4307 23.3087 21.4861C23.1269 21.4224 23.3106 21.3642 23.8599 21.3115C24.4092 21.2589 24.928 21.2058 25.4164 21.1522C25.8448 21.0368 26.4555 20.9546 27.2485 20.9056C28.0425 20.7957 28.9279 20.6871 29.9046 20.58C30.8814 20.4728 31.8272 20.3957 32.7421 20.3486C33.658 20.2405 34.451 20.1915 35.1213 20.2016C34.8166 20.197 34.1454 20.2478 33.1077 20.3541C32.131 20.4612 31.0324 20.5665 29.8119 20.67C29.2016 20.7217 28.5914 20.7735 27.9811 20.8252C27.3709 20.877 26.7906 20.9596 26.2404 21.0732ZM12.8782 22.06C12.6945 22.1182 12.6331 22.1477 12.694 22.1487C12.7559 22.0886 12.8177 22.0286 12.8796 21.9686C13.0024 21.9095 13.0638 21.88 13.0638 21.88C13.1256 21.82 13.0647 21.819 12.881 21.8772C12.8828 21.7554 13.036 21.6967 13.3407 21.7013C13.6463 21.645 13.86 21.6177 13.9819 21.6196C13.86 21.6177 13.6763 21.6759 13.4307 21.7941L12.8782 22.06ZM30.6993 16.3867C30.0863 16.6212 29.1386 16.8202 27.8563 16.9837C27.1842 17.0955 26.482 17.1763 25.7499 17.2262C25.0178 17.2761 24.2552 17.3255 23.4622 17.3745C23.5841 17.3763 23.9197 17.3509 24.469 17.2983C25.0192 17.1847 25.6608 17.0725 26.3939 16.9616C27.1878 16.8517 27.9509 16.7718 28.683 16.7219C29.4769 16.612 30.149 16.5003 30.6993 16.3867ZM313.318 7.67012C313.379 7.67104 314.567 7.7499 316.88 7.90671C319.194 8.06352 322.237 8.32276 326.01 8.68444C329.784 9.04611 334.043 9.50655 338.788 10.0657C343.596 10.5649 348.432 11.1864 353.296 11.9302C358.222 12.675 362.962 13.5388 367.518 14.5218C372.136 15.4447 376.173 16.5113 379.629 17.7214C383.086 18.8706 385.748 20.1297 387.617 21.4987C389.486 22.8678 390.103 24.3703 389.469 26.0063C388.771 27.8241 388.232 29.1873 387.853 30.0958C387.534 31.0052 387.13 31.5781 386.639 31.8144C386.208 32.0517 385.569 32.0421 384.719 31.7855C383.931 31.5298 382.718 31.1458 381.08 30.6335C379.442 30.1212 377.287 29.5706 374.614 28.9818C372.002 28.3939 368.628 27.8554 364.491 27.3663C364.733 27.4309 364.946 27.4951 365.128 27.5588C365.371 27.5624 365.645 27.597 365.949 27.6626C366.678 27.7955 367.499 27.8993 368.413 27.974C369.02 28.1051 369.476 28.1729 369.781 28.1775C370.024 28.2421 370.236 28.2758 370.419 28.2785C370.663 28.2822 370.937 28.3168 371.24 28.3824C370.937 28.3168 370.602 28.2813 370.236 28.2758C369.932 28.2712 369.627 28.2361 369.324 28.1706C368.897 28.1642 368.563 28.1286 368.32 28.064L367.314 28.0489C366.645 27.9778 365.975 27.9372 365.305 27.9271C364.697 27.857 364.058 27.7864 363.388 27.7153C362.05 27.5732 360.71 27.4616 359.371 27.3805C358.031 27.2993 356.662 27.1872 355.262 27.0442C354.593 26.9731 353.923 26.9326 353.253 26.9224C352.644 26.8523 352.005 26.7817 351.336 26.7107C351.032 26.6451 350.698 26.6096 350.332 26.6041C349.966 26.5986 349.632 26.5631 349.328 26.4975C349.023 26.4929 348.688 26.4879 348.323 26.4824C348.018 26.4778 347.714 26.4427 347.41 26.3772C346.131 26.2969 344.883 26.2171 343.665 26.1378C342.509 26.0594 341.352 25.981 340.195 25.9026C339.343 25.8288 338.399 25.7841 337.363 25.7684C336.389 25.6928 335.324 25.5853 334.168 25.446C333.559 25.4368 332.95 25.4276 332.34 25.4184C331.793 25.3492 331.184 25.3095 330.514 25.2994C329.905 25.2293 329.266 25.1892 328.596 25.179C327.986 25.1698 327.347 25.1297 326.678 25.0587C323.998 24.8963 321.319 24.7645 318.639 24.6631C316.02 24.5017 313.554 24.3426 311.241 24.1858C311.545 24.2513 311.605 24.2827 311.422 24.2799C311.3 24.2781 310.996 24.243 310.51 24.1747C310.083 24.1683 309.596 24.1609 309.047 24.1527C308.561 24.0844 308.165 24.0479 307.86 24.0433C308.225 24.1098 308.377 24.1426 308.316 24.1416C308.255 24.1407 308.103 24.1384 307.859 24.1347C307.615 24.1311 307.311 24.1265 306.945 24.1209C306.58 24.0545 306.276 24.0194 306.032 24.0158C306.397 24.0822 306.549 24.115 306.488 24.114C306.427 24.1131 306.275 24.1108 306.031 24.1072C305.788 24.0425 305.484 24.0075 305.118 24.002C304.815 23.9364 304.541 23.9018 304.297 23.8981C304.296 23.9591 304.387 23.9909 304.57 23.9937C304.814 23.9974 304.997 24.0001 305.118 24.002C304.387 23.9909 303.778 23.9817 303.29 23.9744C302.865 23.907 302.469 23.8706 302.104 23.865C301.738 23.8595 301.372 23.854 301.007 23.8485C300.702 23.8439 300.276 23.8375 299.727 23.8292C300.09 24.0175 299.966 24.168 299.355 24.2807C298.805 24.3333 298.043 24.3828 297.067 24.429C296.153 24.4152 295.117 24.3995 293.959 24.3821C292.863 24.3655 291.948 24.3822 291.216 24.4321C291.156 24.3702 291.248 24.3412 291.492 24.3448C291.796 24.3494 292.131 24.3545 292.497 24.36C292.924 24.3664 293.35 24.3729 293.777 24.3793C294.204 24.3248 294.57 24.2999 294.875 24.3045L292.681 24.2714C292.316 24.2658 291.95 24.2603 291.584 24.2548C291.28 24.2502 290.945 24.2147 290.58 24.1482L286.376 24.0848C284.976 24.0027 283.788 23.9543 282.813 23.9396C281.9 23.8649 280.683 23.7551 279.161 23.6102C278.492 23.5392 277.761 23.4977 276.969 23.4857C276.178 23.4128 275.356 23.37 274.502 23.3571C274.016 23.2888 273.559 23.2514 273.133 23.245C272.706 23.2386 272.249 23.2317 271.762 23.2243C271.275 23.156 270.788 23.1182 270.301 23.1108C269.874 23.1044 269.417 23.0975 268.93 23.0901C266.981 22.9998 265.001 22.9394 262.99 22.9091C261.041 22.8187 259.093 22.6979 257.145 22.5466C257.631 22.6149 257.692 22.6463 257.326 22.6408C256.961 22.6353 256.412 22.627 255.681 22.6159C255.316 22.6104 254.919 22.6045 254.493 22.598C254.128 22.5316 253.763 22.4956 253.398 22.4901L252.301 22.4735L251.387 22.4597C251.449 22.3997 251.601 22.3715 251.845 22.3752C252.089 22.3789 252.302 22.3821 252.485 22.3849C252.729 22.3886 252.911 22.3913 253.033 22.3931C253.216 22.3959 253.278 22.3664 253.218 22.3045C253.521 22.37 253.582 22.4014 253.399 22.3987C253.277 22.3968 253.216 22.4264 253.215 22.4873C254.311 22.5648 255.011 22.5754 255.317 22.519C255.623 22.4627 256.019 22.4687 256.505 22.537C256.75 22.4797 256.659 22.4479 256.232 22.4414C255.867 22.4359 255.41 22.429 254.861 22.4207C254.375 22.3524 253.888 22.3146 253.4 22.3073C252.974 22.3008 252.822 22.2681 252.945 22.209C252.519 22.1416 252.093 22.1047 251.666 22.0983C251.24 22.0918 250.813 22.0854 250.387 22.079L248.011 22.0431L243.258 21.9714C241.674 21.8865 240.152 21.8331 238.689 21.811C237.288 21.7898 235.886 21.7687 234.485 21.7475C235.703 21.8269 237.012 21.9076 238.412 21.9897C239.814 22.0108 241.185 22.0315 242.525 22.0517C243.927 22.0729 245.267 22.1236 246.545 22.2038C247.886 22.224 249.105 22.2424 250.201 22.259C250.567 22.2645 250.841 22.2991 251.023 22.3628C251.205 22.3656 251.023 22.3323 250.476 22.2631C246.881 22.2089 243.712 22.1611 240.97 22.1197C238.29 22.0183 235.914 21.9215 233.844 21.8293L232.747 21.8127C232.503 21.8091 232.259 21.8359 232.014 21.8931C231.831 21.8903 231.588 21.8867 231.283 21.8821L227.993 21.8324C226.835 21.8149 225.738 21.7984 224.702 21.7828C223.728 21.7071 222.967 21.6652 222.419 21.6569C222.419 21.6569 222.51 21.6583 222.693 21.661C222.876 21.6638 223.059 21.6665 223.241 21.6693C223.485 21.673 223.668 21.6757 223.79 21.6776C223.973 21.6803 224.003 21.7113 223.88 21.7703L230.278 21.8669C231.496 21.8853 232.623 21.9328 233.658 22.0093C234.755 22.0259 235.729 22.0711 236.582 22.1449C236.338 22.1412 236.094 22.1375 235.85 22.1338C235.607 22.0692 235.364 22.0351 235.121 22.0314L232.379 21.99L221.502 21.8259L216.018 21.7431C215.53 21.7967 215.072 21.8203 214.646 21.8138C214.219 21.8074 213.762 21.8005 213.275 21.7931L210.533 21.7518C208.765 21.786 206.967 21.7894 205.139 21.7618C203.311 21.7342 201.482 21.7371 199.654 21.7704C198.8 21.7575 197.917 21.7442 197.003 21.7304C196.089 21.7166 195.174 21.7333 194.26 21.7804L191.609 21.7404C191.122 21.7331 190.664 21.7567 190.237 21.8111C189.81 21.8047 189.353 21.7978 188.866 21.7905C187.098 21.8247 185.33 21.859 183.562 21.8933C181.795 21.8666 180.027 21.8704 178.259 21.9047C177.772 21.8973 177.315 21.8904 176.888 21.884C176.462 21.8775 176.035 21.9016 175.607 21.9561C175.12 21.9487 174.663 21.9418 174.236 21.9354C173.871 21.9298 173.444 21.9539 172.955 22.0074C172.102 21.9946 171.218 22.0117 170.303 22.0588C169.45 22.046 168.597 22.0636 167.743 22.1116C165.975 22.1459 164.237 22.1806 162.53 22.2158C160.823 22.251 159.116 22.2862 157.409 22.3214C156.982 22.3759 156.555 22.3999 156.128 22.3934C155.763 22.3879 155.367 22.382 154.94 22.3755C154.513 22.43 154.086 22.454 153.659 22.4476C153.233 22.4412 152.806 22.4652 152.378 22.5197C151.524 22.5678 150.701 22.5858 149.909 22.5738C149.117 22.5619 148.294 22.5799 147.44 22.628C146.281 22.6715 145.122 22.7149 143.964 22.7584C142.806 22.7409 141.648 22.7539 140.489 22.7974C139.879 22.8491 139.3 22.8708 138.751 22.8626C138.203 22.8543 137.624 22.876 137.013 22.9278L135.277 22.9016C134.971 22.9579 134.666 22.9838 134.361 22.9792C134.118 22.9755 133.843 22.9713 133.539 22.9667C131.222 23.0537 128.935 23.141 126.678 23.2289C124.423 23.2558 122.137 23.3127 119.819 23.3996C119.27 23.4523 118.721 23.505 118.171 23.5576C117.623 23.5493 117.044 23.5406 116.435 23.5314C115.885 23.5841 115.306 23.6363 114.695 23.688C114.147 23.6797 113.599 23.6714 113.05 23.6632C111.891 23.7676 110.732 23.8415 109.573 23.8849C108.476 23.8684 107.378 23.9128 106.28 24.0181C105.121 24.0616 103.993 24.1055 102.895 24.1499C101.798 24.1942 100.669 24.2382 99.5108 24.2816L96.2163 24.5062C95.6679 24.4979 95.0885 24.5196 94.4783 24.5713C93.9299 24.5631 93.3811 24.5853 92.8317 24.6379C90.6363 24.7267 88.4404 24.8459 86.2441 24.9956C84.0478 25.1453 81.8519 25.2645 79.6565 25.3533C79.3518 25.3487 79.0771 25.375 78.8325 25.4323C78.5888 25.4286 78.3146 25.4245 78.0099 25.4199L77.6443 25.4143L77.5529 25.413L77.4601 25.503L77.0031 25.4961L76.7289 25.4919L75.9063 25.4795L72.616 25.4299C71.5792 25.4752 70.5124 25.4896 69.4156 25.473C68.3798 25.4574 67.313 25.4717 66.2153 25.5161C62.0091 25.5745 57.8629 25.6948 53.7767 25.8769C49.6915 25.9981 45.6358 26.1807 41.6096 26.4247C40.0235 26.5226 38.4674 26.6515 36.9414 26.8113C35.4771 26.9111 34.2248 27.1055 33.1843 27.3946C35.6835 27.3713 38.3673 27.229 41.2357 26.9675C42.639 26.8668 44.0114 26.7961 45.3528 26.7554C46.7561 26.6547 48.159 26.5845 49.5613 26.5447C53.4038 26.3589 57.2148 26.2335 60.9945 26.1687C62.8243 26.0744 64.6532 26.0411 66.4812 26.0687C68.371 26.0362 70.2913 26.0043 72.2421 25.9728C70.4732 26.068 68.6743 26.1322 66.8454 26.1656C65.0165 26.1989 63.0353 26.23 60.9017 26.2587C61.1445 26.3233 61.5401 26.3598 62.0885 26.368C62.6378 26.3154 63.1867 26.2932 63.7351 26.3015C64.2844 26.2488 64.7723 26.2257 65.1989 26.2321C65.6254 26.2386 65.8691 26.2423 65.9301 26.2432C62.7597 26.3172 59.528 26.4208 56.2348 26.554C52.9426 26.6262 49.6495 26.7593 46.3555 26.9534C43.1223 27.1484 39.9802 27.3752 36.9289 27.6339C33.8777 27.8926 31.0384 28.2459 28.4109 28.6938C27.9844 28.6874 27.9848 28.6569 28.4123 28.6024C28.8397 28.5479 29.1148 28.4911 29.2376 28.432C28.9339 28.3665 28.6288 28.3924 28.3223 28.5096C28.0167 28.566 27.6502 28.6214 27.2227 28.6759C27.8957 28.5032 28.5073 28.3601 29.0576 28.2465C29.6087 28.072 29.9166 27.8633 29.9812 27.6205C29.1263 27.7295 28.5152 27.8421 28.1477 27.9585C27.8421 28.0148 27.4452 28.0698 26.9568 28.1234C26.5912 28.1178 26.653 28.0578 27.1423 27.9433C27.3261 27.8851 27.5093 27.8574 27.6921 27.8602C27.8758 27.802 27.9986 27.7429 28.0605 27.6829C27.7549 27.7393 27.4493 27.7956 27.1437 27.8519C26.9 27.8482 26.8081 27.8773 26.8681 27.9392C26.3798 27.9928 26.197 27.99 26.3197 27.9309C26.4435 27.8109 26.5362 27.7209 26.5981 27.6608C26.2925 27.7172 26.1088 27.7754 26.0469 27.8354C25.986 27.8345 25.8032 27.8317 25.4985 27.8271C25.6222 27.7071 25.8673 27.6193 26.2339 27.5639C26.6004 27.5085 26.9669 27.4531 27.3334 27.3977C28.1901 27.1668 28.5885 27.0205 28.5285 26.9586C30.4829 26.6834 32.3451 26.4677 34.1149 26.3116C35.9456 26.1564 37.7454 26.0311 39.5143 25.936C39.3315 25.9332 39.2706 25.9323 39.3315 25.9332C39.3925 25.9341 39.4529 25.9655 39.5129 26.0274C40.185 25.9156 41.009 25.8366 41.9849 25.7904C42.9616 25.6832 43.9689 25.5765 45.0065 25.4703C46.0433 25.425 47.0496 25.3793 48.0255 25.333C49.0013 25.2868 49.8253 25.2078 50.4974 25.0961C50.4374 25.0342 50.1636 24.9996 49.6762 24.9923C49.2496 24.9858 48.8227 25.0099 48.3952 25.0644C49.8613 24.8427 51.4792 24.6538 53.249 24.4977C55.0798 24.3425 56.8491 24.2168 58.5571 24.1207C58.9227 24.1262 59.0136 24.158 58.8299 24.2162C58.6471 24.2134 58.829 24.2771 59.3755 24.4073C59.6193 24.411 59.7107 24.4123 59.6497 24.4114C59.6497 24.4114 59.5888 24.4105 59.4669 24.4087C59.4069 24.3468 59.3464 24.3154 59.2855 24.3145C59.2864 24.2536 59.4392 24.2254 59.7439 24.23C60.3532 24.2392 60.6269 24.2738 60.5651 24.3338C61.9684 24.2331 63.5536 24.1961 65.3206 24.2227C67.0876 24.2494 68.9466 24.247 70.8973 24.2155L73.8221 24.2596C74.1277 24.2033 74.6156 24.1802 75.2859 24.1903L76.6569 24.211L77.0224 24.2165L77.4794 24.2234L77.5708 24.2248L77.755 24.1361L78.4862 24.1472C78.7309 24.0899 79.1579 24.0659 79.7672 24.0751C80.1946 24.0206 80.5912 23.9961 80.9567 24.0016C81.3842 23.9471 81.7812 23.8922 82.1477 23.8367L90.6561 23.4166C92.1203 23.3168 93.5536 23.247 94.956 23.2073C96.4202 23.1075 97.8535 23.0377 99.2559 22.9979C100.72 22.8981 102.184 22.8288 103.647 22.7899C105.111 22.6901 106.545 22.5898 107.948 22.4891L112.34 22.2811C112.705 22.2867 113.071 22.2922 113.437 22.2977C113.803 22.2423 114.169 22.2173 114.535 22.2228C114.901 22.1674 115.267 22.1425 115.633 22.148C115.998 22.1535 116.364 22.159 116.73 22.1646C119.718 22.0268 122.707 21.8891 125.695 21.7513C128.744 21.6145 131.824 21.5086 134.933 21.4336C138.043 21.3587 141.183 21.2842 144.353 21.2101C147.523 21.1361 150.755 21.0629 154.047 20.9907C151.304 21.0103 148.5 21.0289 145.635 21.0466C142.771 21.0034 139.846 21.0202 136.858 21.097L134.665 21.0639C134.237 21.1184 133.841 21.1429 133.475 21.1374C133.109 21.1319 132.744 21.1263 132.378 21.1208C131.646 21.1707 130.884 21.1897 130.092 21.1777C129.361 21.1667 128.599 21.1857 127.806 21.2347C126.281 21.2726 124.757 21.3105 123.233 21.3485C121.709 21.3255 120.186 21.333 118.661 21.3709C117.075 21.4689 115.52 21.5368 113.996 21.5748C112.473 21.5518 110.918 21.5893 109.332 21.6872C107.747 21.7243 106.192 21.7617 104.668 21.7997C103.144 21.8376 101.589 21.8751 100.004 21.9121C96.8942 21.9871 93.8148 22.093 90.7654 22.2298C87.7779 22.3066 84.7903 22.3834 81.8028 22.4602C81.3144 22.5138 80.8265 22.5369 80.339 22.5296C79.9125 22.5231 79.455 22.5467 78.9667 22.6003L77.5043 22.5782L77.5029 22.6696L77.4115 22.6682L77.0459 22.6627L76.8631 22.66L76.4975 22.6544L75.7677 22.552L70.1923 22.4679C68.3644 22.4403 66.5668 22.4132 64.7998 22.3865C63.0327 22.3598 61.2652 22.3636 59.4973 22.3979C56.0232 22.4064 52.7005 22.4782 49.5292 22.6131C46.358 22.7481 43.3991 22.9472 40.6525 23.2105C39.2492 23.3112 37.8764 23.4124 36.534 23.5141C35.1917 23.6157 33.9102 23.7182 32.6897 23.8217C31.4074 23.9852 30.1555 24.1492 28.9341 24.3136C27.7136 24.417 26.4922 24.5814 25.2699 24.8068C22.888 25.1365 20.6266 25.5595 18.4856 26.0757C17.9354 26.1893 17.3847 26.3333 16.8335 26.5079C16.3442 26.6224 15.8549 26.7369 15.3656 26.8514C15.0591 26.9687 14.7836 27.0559 14.5389 27.1132C14.3552 27.1714 14.1406 27.2595 13.895 27.3777C13.8341 27.3768 13.7727 27.4063 13.7108 27.4664C13.7108 27.4664 13.6803 27.4659 13.6194 27.465L13.2524 27.5509L12.6999 27.8168C12.5762 27.9368 12.4225 28.0259 12.2388 28.0841C12.055 28.1423 11.9013 28.2314 11.7776 28.3514C11.7158 28.4114 11.6544 28.4409 11.5935 28.44L11.5921 28.5314L11.5007 28.53C11.3806 28.4063 11.3206 28.3445 11.3206 28.3445L11.412 28.3459L11.4107 28.4373L11.412 28.3459L11.5034 28.3472L11.5048 28.2559L11.5962 28.2572C11.5971 28.1963 11.6281 28.1663 11.689 28.1672L11.6904 28.0758C11.5685 28.074 11.4457 28.1331 11.322 28.2531L11.3234 28.1617L11.232 28.1603L11.2334 28.0689L11.3248 28.0703L11.3262 27.9789C11.4499 27.8589 11.6345 27.7398 11.8801 27.6216C11.9419 27.5616 12.0033 27.532 12.0642 27.5329L12.2498 27.3529L12.3412 27.3543L12.5254 27.2656C12.5254 27.2656 12.5868 27.2361 12.7096 27.177C13.3226 26.9425 14.0579 26.6793 14.9155 26.3875C15.8951 26.0976 16.7823 25.8672 17.5772 25.6963C18.4948 25.4664 19.4425 25.2674 20.4202 25.0993C21.4597 24.8712 22.4988 24.6735 23.5374 24.5064C24.576 24.3392 25.6142 24.2025 26.6519 24.0963C27.6905 23.9291 28.7286 23.7924 29.7663 23.6862C29.6454 23.6234 29.3412 23.5883 28.8537 23.581C30.0742 23.4775 31.3557 23.375 32.698 23.2733C34.0404 23.1717 35.4132 23.0705 36.8165 22.9698C39.6858 22.6474 42.6452 22.4178 45.6946 22.281L39.8451 22.1927C38.8083 22.238 37.7411 22.2829 36.6433 22.3272C35.5466 22.3107 34.3879 22.3542 33.1674 22.4576C33.1674 22.4576 33.2284 22.4585 33.3502 22.4604C33.4721 22.4622 33.6244 22.4645 33.8072 22.4673C33.99 22.47 34.1423 22.4723 34.2642 22.4742C34.3861 22.476 34.4161 22.5069 34.3542 22.567C33.8668 22.5596 33.3179 22.5818 32.7077 22.6335C32.0983 22.6243 31.4886 22.6456 30.8783 22.6973C29.6578 22.8008 28.6806 22.9384 27.9466 23.1102C28.1885 23.2357 28.309 23.329 28.3081 23.3899C28.3081 23.3899 28.2167 23.3885 28.0339 23.3858C27.913 23.323 27.7615 23.2598 27.5797 23.1961C27.3978 23.1324 27.3078 23.0396 27.3096 22.9177C26.884 22.8504 26.397 22.8126 25.8486 22.8043C25.3611 22.7969 25.1488 22.7328 25.2116 22.6118C24.6622 22.6645 24.1429 22.7481 23.6536 22.8626C23.2262 22.9171 22.7069 23.0007 22.0957 23.1133C21.9757 22.9896 22.0985 22.9305 22.4641 22.936C22.8915 22.8815 23.3194 22.7966 23.7478 22.6812C23.3822 22.6756 23.2608 22.6433 23.3836 22.5842C23.5073 22.4642 23.4173 22.3714 23.1135 22.3059C23.42 22.1886 23.6333 22.1919 23.7533 22.3156C23.8743 22.3783 24.0566 22.4116 24.3003 22.4152C24.6668 22.3598 24.6978 22.3298 24.3931 22.3252C24.1494 22.3215 24.1198 22.2601 24.3045 22.141C24.7928 22.0875 25.0366 22.0911 25.0357 22.1521C25.0957 22.2139 25.2471 22.2772 25.4899 22.3418C25.7964 22.2245 25.9806 22.1359 26.0424 22.0758C26.1043 22.0158 25.9219 21.9826 25.4954 21.9762C26.1675 21.8644 26.9001 21.7841 27.6931 21.7351C28.4871 21.6252 29.2506 21.5148 29.9836 21.404C30.6557 21.2922 31.2664 21.21 31.8157 21.1574C32.3651 21.1047 32.7011 21.0488 32.8239 20.9897L34.7433 21.0187L37.3025 21.0573C37.5471 21.0001 37.548 20.9391 37.3052 20.8745C37.0624 20.8099 37.1547 20.7504 37.5822 20.6959C39.3511 20.6007 41.179 20.6282 43.0661 20.7786C44.9541 20.8681 46.9035 20.9279 48.9143 20.9583C48.9143 20.9583 49.0052 20.9901 49.1871 21.0538C49.3699 21.0566 49.5527 21.0593 49.7355 21.0621C49.9183 21.0649 50.0402 21.0667 50.1011 21.0676C50.162 21.0685 50.0702 21.0976 49.8255 21.1549C51.8981 21.1252 54.2441 21.1606 56.8632 21.2611C59.4824 21.3616 62.2549 21.4034 65.1806 21.3866C63.9028 21.2454 62.4413 21.1624 60.7962 21.1376C59.2119 21.1137 57.9637 21.0339 57.0516 20.8983C57.2953 20.9019 57.143 20.8996 56.5946 20.8914C56.108 20.8231 55.4696 20.722 54.6793 20.5882C53.8881 20.5153 53.1274 20.4429 52.3971 20.3709C51.6677 20.238 51.2126 20.1093 51.0316 19.9846C52.6777 19.9485 54.4752 19.9756 56.4242 20.066C58.374 20.0954 60.3843 20.1562 62.4551 20.2484C64.5259 20.3406 66.5663 20.4324 68.5761 20.5237C70.6469 20.6159 72.6277 20.6153 74.5184 20.5219C74.2138 20.5173 73.8787 20.5123 73.5131 20.5067C73.2093 20.4412 72.8442 20.4052 72.4176 20.3988C72.3576 20.3369 72.5409 20.3092 72.9674 20.3157C70.8366 20.1616 68.6139 20.0367 66.2994 19.9408C64.0458 19.8458 61.8532 19.7518 59.7214 19.6587L60.6354 19.6725C60.6336 19.7943 60.4499 19.8525 60.0843 19.847C59.7805 19.7815 59.6596 19.7187 59.7214 19.6587C58.1363 19.6957 56.6425 19.7341 55.2401 19.7739C53.8987 19.8146 52.5572 19.8553 51.2158 19.896C49.8125 19.9967 48.4401 20.0674 47.0987 20.1081C45.7573 20.1488 44.3544 20.2191 42.8902 20.3189C42.4018 20.3724 42.1276 20.3683 42.0676 20.3064C42.0076 20.2446 41.7948 20.2109 41.4292 20.2054C40.818 20.3181 40.055 20.398 39.1401 20.4451C38.287 20.4322 37.3721 20.4794 36.3954 20.5865C35.4195 20.6327 34.4741 20.6794 33.5592 20.7266C32.7052 20.7746 31.9427 20.8241 31.2715 20.8749C31.8836 20.7013 32.7085 20.5614 33.7462 20.4551C34.7839 20.3489 35.852 20.2431 36.9506 20.1378C38.0493 20.0325 39.056 19.9563 39.971 19.9091C40.9477 19.802 41.6203 19.6598 41.9886 19.4825C41.5012 19.4751 40.8609 19.4959 40.0679 19.5449C39.2757 19.533 38.5132 19.5824 37.7801 19.6932C37.962 19.7569 38.3576 19.7934 38.9669 19.8026C39.5772 19.7508 40.1874 19.6991 40.7977 19.6473C40.1256 19.7591 39.0579 19.8344 37.5946 19.8733C36.1931 19.8521 34.608 19.8891 32.8391 19.9843C31.9232 20.0924 31.0079 20.17 30.093 20.2172C29.179 20.2034 28.2945 20.251 27.4396 20.36C26.5238 20.468 25.6384 20.5766 24.7835 20.6855C23.9296 20.7336 23.136 20.8131 22.403 20.9239C22.0974 20.9802 21.7309 21.0356 21.3035 21.0901C20.9379 21.0846 20.5409 21.1396 20.1125 21.255C19.6841 21.3704 19.2562 21.4554 18.8288 21.5099C18.4623 21.5653 18.1258 21.6516 17.8193 21.7689C17.5137 21.8252 17.269 21.8825 17.0853 21.9407C16.9625 21.9998 16.9621 22.0302 17.0839 22.0321C17.1449 22.033 17.3281 22.0053 17.6337 21.9489C18.0002 21.8935 18.55 21.8104 19.283 21.6996C18.6109 21.8113 17.9079 21.9531 17.174 22.1248C16.4409 22.2357 15.7074 22.377 14.9735 22.5487C13.5074 22.7704 12.1314 23.0848 10.8453 23.4921C10.9072 23.432 11.0914 23.3434 11.3979 23.2261C11.5216 23.1061 11.7672 22.9879 12.1346 22.8716C12.4411 22.7543 12.7167 22.667 12.9613 22.6098C13.2669 22.5535 13.4815 22.4653 13.6052 22.3453C13.6052 22.3453 13.5752 22.3143 13.5152 22.2525L12.9668 22.2442C13.2733 22.1269 13.5489 22.0397 13.7936 21.9824C14.0391 21.8642 14.3152 21.7465 14.6217 21.6292C14.8672 21.511 15.1124 21.4233 15.357 21.3661C15.6026 21.2479 15.8786 21.1302 16.1851 21.0129C16.3679 21.0156 16.4593 21.017 16.4593 21.017C16.4593 21.017 16.4284 21.047 16.3665 21.107C16.3056 21.1061 16.2442 21.1357 16.1824 21.1957C16.1205 21.2557 16.1505 21.2866 16.2724 21.2885C16.7617 21.174 17.4338 21.0622 18.2887 20.9532C18.4724 20.895 18.5643 20.866 18.5643 20.866C18.5643 20.866 18.5033 20.865 18.3815 20.8632C18.3205 20.8623 18.2596 20.8614 18.1987 20.8604C18.1386 20.7986 18.1391 20.7681 18.2 20.769C18.6275 20.7145 19.2382 20.6323 20.0322 20.5224C20.8871 20.4134 21.4368 20.3303 21.6815 20.2731C21.194 20.2657 20.767 20.2897 20.4005 20.3451C20.034 20.4006 19.6065 20.4551 19.1182 20.5086C18.6935 20.3803 17.9618 20.3998 16.9232 20.5669C15.8855 20.6732 14.755 20.8694 13.5318 21.1557C12.2476 21.441 11.0539 21.7887 9.95066 22.1987C9.64416 22.3159 9.36812 22.4337 9.12256 22.5519C8.93792 22.671 8.75328 22.7901 8.56864 22.9092C8.32307 23.0274 8.10797 23.146 7.92333 23.2651C7.80055 23.3242 7.6773 23.4138 7.5536 23.5338L7.73915 23.3538L7.92471 23.1737C7.98656 23.1137 8.01749 23.0837 8.01749 23.0837C8.01841 23.0228 8.04979 22.9623 8.11165 22.9023C8.23535 22.7823 8.29812 22.6613 8.29996 22.5394L8.5783 22.2694C8.64107 22.1484 8.88802 21.9389 9.31915 21.6406C9.50378 21.5215 9.71889 21.4029 9.96446 21.2847C10.271 21.1674 10.6689 21.0515 11.1582 20.937C10.8526 20.9934 10.5775 21.0502 10.3328 21.1074C10.0882 21.1647 9.81259 21.2519 9.50608 21.3692C9.2005 21.4255 8.92538 21.4823 8.68073 21.5396C8.49701 21.5978 8.2519 21.6855 7.9454 21.8027C7.69983 21.9209 7.48519 22.0091 7.30147 22.0673C7.11867 22.0645 6.96588 22.0927 6.84309 22.1518C6.53659 22.2691 6.38472 22.2363 6.38748 22.0535C6.63673 21.6916 6.97599 21.4224 7.40528 21.2461C7.4062 21.1851 7.43713 21.1551 7.49806 21.156C7.55899 21.157 7.58946 21.1574 7.58946 21.1574C7.59038 21.0965 7.62131 21.0665 7.68224 21.0674C7.80594 20.9474 7.86779 20.8874 7.86779 20.8874C8.05059 20.8901 8.20384 20.8315 8.32755 20.7115C9.00241 20.4169 9.52309 20.2419 9.88961 20.1865C10.318 20.0711 10.715 20.0161 11.0806 20.0217C11.4462 20.0272 11.8727 20.0336 12.3601 20.041C13.0959 19.7473 13.8003 19.5142 14.4734 19.3415C15.1473 19.1079 15.8208 18.9047 16.4938 18.732C17.2287 18.4994 17.9931 18.328 18.787 18.2181C19.6429 18.0482 20.6205 17.8801 21.7201 17.7139C21.1699 17.8275 20.6196 17.9411 20.0694 18.0546C19.581 18.1082 19.1226 18.1927 18.6943 18.3082C17.6538 18.5972 17.1017 18.8326 17.0381 19.0145C17.5883 18.9009 18.0776 18.7864 18.506 18.671C18.9343 18.5556 19.3627 18.4401 19.7911 18.3247C20.2194 18.2093 20.6473 18.1243 21.0748 18.0698C21.5022 18.0153 22.0215 17.9317 22.6327 17.8191C22.7537 17.8818 22.6918 17.9419 22.4472 17.9991C22.2644 17.9964 22.142 18.025 22.0802 18.085C22.5686 18.0314 23.2702 17.9811 24.1851 17.9339C25.1619 17.8268 26.1996 17.7205 27.2982 17.6152C28.3359 17.509 29.3731 17.4332 30.4099 17.3879C31.4476 17.2817 32.2711 17.2332 32.8804 17.2424C33.3697 17.1279 33.6758 17.0411 33.7986 16.982C33.9214 16.9229 34.1969 16.8356 34.6253 16.7202C36.3296 16.8678 37.7933 16.7985 39.0166 16.5122C40.2408 16.165 41.4936 15.9401 42.775 15.8375C43.1406 15.8431 43.2011 15.8745 42.9564 15.9317C42.7118 15.989 42.4676 16.0157 42.2238 16.0121C42.7104 16.0804 43.1069 16.0559 43.4134 15.9386C43.7199 15.8213 44.1174 15.7359 44.6057 15.6823C44.4239 15.6186 44.2406 15.6464 44.056 15.7655C43.8722 15.8236 43.5671 15.8495 43.1406 15.8431C43.508 15.7267 44.0578 15.6436 44.7899 15.5937C45.523 15.4829 46.0732 15.3693 46.4406 15.2529C45.0992 15.2936 43.941 15.3066 42.9661 15.2919C42.053 15.2172 40.8948 15.2302 39.4915 15.3309C40.0408 15.2782 40.6811 15.2574 41.4123 15.2685C42.1444 15.2186 42.846 15.1682 43.5172 15.1174L47.0818 15.1712C47.753 15.1204 48.3328 15.0682 48.8211 15.0146C49.3705 14.9619 49.8898 14.8784 50.3791 14.7638C49.6479 14.7528 48.6111 14.7981 47.2687 14.8997C45.9273 14.9404 44.7382 14.9834 43.7014 15.0287C43.3967 15.0242 43.3053 15.0228 43.4272 15.0246C43.55 14.9655 43.6418 14.9364 43.7028 14.9373C43.2763 14.9309 42.8188 14.9545 42.3304 15.0081C41.843 15.0007 41.2946 14.9924 40.6852 14.9832C40.9299 14.926 41.2655 14.9006 41.692 14.907C42.1195 14.8525 42.5769 14.8289 43.0644 14.8363C43.5528 14.7827 44.0102 14.7591 44.4367 14.7656C44.9251 14.712 45.2916 14.6566 45.5363 14.5993C45.2926 14.5957 44.9574 14.5906 44.5309 14.5842C44.1044 14.5777 43.6774 14.6018 43.2499 14.6563C42.8843 14.6507 42.5487 14.6761 42.2432 14.7325C41.9994 14.7288 41.8771 14.7574 41.8762 14.8184C41.5724 14.7528 41.1154 14.7459 40.5052 14.7977C39.9568 14.7894 39.4075 14.8421 38.8573 14.9556C39.0391 15.0193 39.4347 15.0558 40.0441 15.065C39.7385 15.1213 39.1892 15.174 38.3961 15.2229C37.6649 15.2119 36.9028 15.2309 36.1098 15.2799C35.3167 15.3288 34.5846 15.3787 33.9134 15.4296C33.3041 15.4204 32.9376 15.4758 32.8139 15.5958C32.9958 15.6595 33.3309 15.6645 33.8193 15.611C34.3086 15.4965 34.7665 15.4424 35.193 15.4489C34.6428 15.5625 34.093 15.6456 33.5437 15.6982C32.9944 15.7509 32.4141 15.8336 31.803 15.9462C31.1309 16.058 30.4592 16.1393 29.788 16.1901C29.1778 16.2418 28.4757 16.3226 27.6817 16.4325C27.5608 16.3698 27.5617 16.3088 27.6845 16.2498C27.8082 16.1297 27.9924 16.0411 28.237 15.9838C28.4826 15.8656 28.7277 15.7779 28.9724 15.7207C29.2779 15.6643 29.5226 15.6071 29.7063 15.5489C29.5235 15.5461 29.3098 15.5734 29.0651 15.6306C28.8823 15.6279 28.6995 15.6251 28.5167 15.6224C28.5177 15.5614 28.7314 15.5342 29.1579 15.5406C29.6454 15.548 30.0419 15.5235 30.3475 15.4672C30.6531 15.4108 30.8363 15.3831 30.8973 15.384C30.9591 15.324 31.0819 15.2649 31.2656 15.2068C30.9 15.2012 30.6558 15.228 30.533 15.2871C30.4112 15.2853 30.137 15.2811 29.7104 15.2747C29.8332 15.2156 30.047 15.1884 30.3516 15.193C30.6563 15.1976 30.9309 15.1712 31.1756 15.114C29.5895 15.2119 28.1548 15.3731 26.8716 15.5975C25.6501 15.762 24.4615 15.7745 23.3056 15.6351C22.0851 15.7386 20.9551 15.9044 19.9156 16.1325C18.8769 16.2997 17.8683 16.4978 16.8897 16.7268C15.973 16.8958 15.0862 17.0957 14.2295 17.3266C13.4337 17.5584 12.607 17.8201 11.7493 18.1119C11.7493 18.1119 11.6879 18.1415 11.5651 18.2006C11.687 18.2024 11.7484 18.1729 11.7493 18.1119C12.0558 17.9947 12.3614 17.9383 12.6661 17.9429C12.9717 17.8866 13.2777 17.7998 13.5842 17.6825C13.9516 17.5662 14.2877 17.5103 14.5923 17.5149C14.9589 17.4595 15.2644 17.4031 15.5091 17.3459C15.631 17.3477 15.4168 17.4054 14.8665 17.519C14.3772 17.6335 13.7961 17.7771 13.1231 17.9498C12.8166 18.0671 12.4801 18.1534 12.1135 18.2088C11.747 18.2643 11.4105 18.3506 11.104 18.4679C10.7975 18.5851 10.5219 18.6724 10.2773 18.7297C10.0936 18.7878 9.94077 18.816 9.8189 18.8142C9.75797 18.8132 9.66611 18.8423 9.54332 18.9014C9.48147 18.9614 9.38915 19.021 9.26637 19.0801C9.14266 19.2001 9.01988 19.2592 8.89801 19.2574C8.77523 19.3164 8.68291 19.376 8.62106 19.436C8.62106 19.436 8.55967 19.4656 8.43688 19.5247C8.13038 19.6419 7.9462 19.7306 7.88435 19.7906C7.82249 19.8506 8.00621 19.7924 8.4355 19.6161C8.25086 19.7352 8.00483 19.8838 7.69741 20.062C7.45184 20.1802 7.1758 20.2979 6.8693 20.4152C6.62373 20.5334 6.31631 20.7116 5.94703 20.9498L5.6687 21.2199C5.60777 21.2189 5.51545 21.2785 5.39174 21.3985L5.76286 21.0384L5.85563 20.9484C5.85563 20.9484 5.79424 20.978 5.67146 21.0371C5.61052 21.0361 5.54913 21.0657 5.48728 21.1257C5.42543 21.1857 5.36403 21.2153 5.3031 21.2143C5.3031 21.2143 5.27218 21.2444 5.21032 21.3044C4.7792 21.6026 4.40762 21.9931 4.0956 22.476C4.09376 22.5979 4.06238 22.6583 4.00145 22.6574C4.00053 22.7184 3.96914 22.7788 3.90729 22.8388C3.90729 22.8388 3.90683 22.8693 3.90591 22.9302C3.90499 22.9912 3.87406 23.0212 3.81313 23.0203C3.81313 23.0203 3.81267 23.0507 3.81175 23.1117C3.80991 23.2335 3.77807 23.3245 3.71621 23.3845C3.71345 23.5673 3.68069 23.7191 3.61792 23.8401L3.61102 24.2971C3.6101 24.358 3.63965 24.4194 3.69966 24.4813L3.69828 24.5727L3.69966 24.4813L3.70104 24.3899C3.70288 24.268 3.70472 24.1461 3.70656 24.0243C3.77025 23.8424 3.80164 23.7819 3.80072 23.8428L3.79658 24.117C3.79474 24.2389 3.82383 24.3308 3.88384 24.3926L3.88246 24.484L3.88108 24.5754C3.87924 24.6973 3.90833 24.7891 3.96834 24.851C4.08469 25.2184 4.20196 25.5249 4.32014 25.7705C4.61653 26.3235 4.85521 26.6623 5.03616 26.7869L4.94615 26.6942C4.88521 26.6932 4.82474 26.6618 4.76473 26.6L4.49467 26.3217L4.13459 25.9505C4.01272 25.9487 3.95041 26.0392 3.94765 26.222C4.12493 26.5903 4.30267 26.9282 4.48087 27.2357C4.65999 27.4821 4.83865 27.7591 5.01685 28.0665C5.19597 28.313 5.37509 28.5595 5.55421 28.806C5.73425 28.9915 5.9443 29.208 6.18435 29.4554C6.24345 29.5782 6.33301 29.7015 6.45303 29.8252C6.57306 29.9489 6.69355 30.0421 6.81449 30.1049C6.99361 30.3514 7.20366 30.5679 7.44463 30.7543C7.92474 31.2492 8.43623 31.6835 8.9791 32.0574C8.6772 31.87 8.37529 31.6826 8.07339 31.4952C7.83242 31.3087 7.56144 31.0913 7.26045 30.843C6.95947 30.5946 6.65802 30.3768 6.35612 30.1894C6.11606 29.942 5.846 29.6636 5.54594 29.3544C5.24587 29.0451 4.94535 28.7663 4.64436 28.518C4.40523 28.2097 4.13609 27.8704 3.83694 27.5002C3.71875 27.2546 3.56964 27.0391 3.3896 26.8535C3.27049 26.6689 3.15231 26.4233 3.03504 26.1168C2.91777 25.8103 2.83097 25.5042 2.77464 25.1987C2.7183 24.8931 2.69243 24.588 2.69703 24.2833C2.63886 24.0996 2.61207 23.8554 2.61666 23.5507L2.62356 23.0937C2.6254 22.9719 2.62678 22.8805 2.6277 22.8195C2.68955 22.7595 2.7214 22.6686 2.72324 22.5467C2.72508 22.4248 2.75692 22.3339 2.81877 22.2739C2.82061 22.152 2.85246 22.0611 2.91431 22.0011C2.91615 21.8792 2.97984 21.6973 3.10539 21.4554C3.22909 21.3354 3.2914 21.2449 3.29232 21.184C3.41603 21.064 3.47788 21.004 3.47788 21.004C3.54065 20.883 3.60296 20.7925 3.66482 20.7325C3.72667 20.6725 3.78898 20.582 3.85175 20.4611L4.13009 20.191C4.25379 20.071 4.31564 20.011 4.31564 20.011C4.43843 19.9519 4.56167 19.8623 4.68538 19.7423C4.80908 19.6223 4.9014 19.5627 4.96233 19.5636C5.02419 19.5036 5.05511 19.4736 5.05511 19.4736C5.11604 19.4745 5.17744 19.445 5.23929 19.385L5.33069 19.3864L5.42347 19.2963C5.4844 19.2973 5.51487 19.2977 5.51487 19.2977C5.57672 19.2377 5.63811 19.2082 5.69904 19.2091C5.7609 19.1491 5.94507 19.0604 6.25158 18.9432C6.6827 18.6449 7.08244 18.4072 7.4508 18.2299C7.81916 18.0526 8.18751 17.8753 8.55587 17.6981C8.9233 17.5817 9.26027 17.4649 9.56677 17.3476C9.93513 17.1703 10.2726 17.0231 10.5791 16.9058C11.253 16.6722 11.9265 16.469 12.5995 16.2964C13.2725 16.1237 14.0369 15.9524 14.8928 15.7824C14.5881 15.7779 14.4362 15.7451 14.4371 15.6842C14.499 15.6241 14.5608 15.5641 14.6227 15.5041C14.7455 15.445 14.8073 15.385 14.8082 15.3241C14.8701 15.2641 14.7487 15.2318 14.444 15.2272C14.0775 15.2826 13.9547 15.3417 14.0757 15.4044C14.2585 15.4072 14.1966 15.4672 13.8901 15.5845C13.5845 15.6408 13.3403 15.6676 13.1575 15.6648C12.9747 15.6621 12.8224 15.6598 12.7006 15.6579C12.5187 15.5943 12.6728 15.4747 13.1631 15.2992C11.2068 15.6963 10.1659 16.0158 10.0403 16.2577C8.87708 16.6059 7.86617 16.9563 7.0076 17.309C6.21087 17.6017 5.50555 17.8958 4.89162 18.1913C4.76792 18.3113 4.70607 18.3713 4.70607 18.3713C4.58236 18.4913 4.49004 18.5509 4.42911 18.55L4.15078 18.82C4.08892 18.88 4.02753 18.9096 3.9666 18.9087C3.9666 18.9087 3.93567 18.9387 3.87382 18.9987L3.59549 19.2688L3.31715 19.5388C3.2553 19.5988 3.19344 19.6588 3.13159 19.7189C3.13067 19.7798 3.09929 19.8403 3.03743 19.9003L2.94466 19.9903L2.94328 20.0817C2.88234 20.0808 2.85142 20.1108 2.8505 20.1717C2.8505 20.1717 2.82003 20.1713 2.7591 20.1703C2.75818 20.2313 2.72679 20.2917 2.66494 20.3518C2.54124 20.4718 2.47938 20.5318 2.47938 20.5318C2.35384 20.7737 2.29061 20.9251 2.28969 20.986C2.16599 21.1061 2.07275 21.2265 2.00998 21.3475C2.00906 21.4084 1.97767 21.4689 1.91582 21.5289L1.91306 21.7117C1.85121 21.7717 1.81982 21.8322 1.8189 21.8931C1.81798 21.9541 1.7866 22.0145 1.72474 22.0745C1.72198 22.2573 1.68968 22.3787 1.62783 22.4388L1.62369 22.713L1.61955 22.9872C1.5577 23.0472 1.52539 23.1686 1.52263 23.3514C1.52171 23.4123 1.49033 23.4728 1.42848 23.5328C1.42848 23.5328 1.42756 23.5937 1.42572 23.7156L1.42158 23.9898L1.41606 24.3554L1.41055 24.721C1.47056 24.7828 1.49965 24.8747 1.49781 24.9966L1.49367 25.2708C1.49275 25.3317 1.49183 25.3926 1.49091 25.4535C1.55184 25.4545 1.58185 25.4854 1.58093 25.5463C1.57909 25.6682 1.60818 25.7601 1.66819 25.8219L1.66543 26.0047C1.72453 26.1275 1.75361 26.2193 1.75269 26.2803C1.75269 26.2803 1.78224 26.3417 1.84133 26.4645C1.84041 26.5254 1.86996 26.5868 1.92997 26.6486L1.92722 26.8314C1.98723 26.8933 2.01678 26.9547 2.01586 27.0156C2.01494 27.0765 2.04448 27.1379 2.1045 27.1998L2.37042 27.7523C2.43043 27.8142 2.45998 27.8756 2.45906 27.9365C2.51907 27.9984 2.57908 28.0602 2.6391 28.1221C2.69819 28.2448 2.75729 28.3676 2.81638 28.4904C2.87547 28.6132 2.93457 28.736 2.99366 28.8588C3.11185 29.1043 3.20095 29.258 3.26096 29.3199C3.37915 29.5655 3.43778 29.7187 3.43686 29.7797L3.6169 29.9652C3.61506 30.0871 3.64461 30.1485 3.70554 30.1494C3.76464 30.2722 3.79372 30.364 3.7928 30.425C3.85374 30.4259 3.91375 30.4877 3.97284 30.6105L3.70278 30.3322C3.64369 30.2094 3.55413 30.0862 3.4341 29.9625C3.31316 29.8997 3.22268 29.8374 3.16267 29.7755C3.16358 29.7146 3.13404 29.6532 3.07402 29.5913C3.01401 29.5295 2.954 29.4676 2.89398 29.4058C2.8949 29.3448 2.86536 29.2835 2.80534 29.2216C2.26615 28.604 1.84927 27.9578 1.55472 27.2829C1.49563 27.1601 1.43608 27.0678 1.37606 27.006C1.31605 26.9441 1.2565 26.8518 1.1974 26.729C1.20016 26.5462 1.14245 26.332 1.02426 26.0864C0.906072 25.8409 0.848357 25.6267 0.851116 25.4439C0.734768 25.0765 0.677513 24.8318 0.679352 24.7099C0.68395 24.4053 0.657162 24.1611 0.598988 23.9774C0.600827 23.8555 0.602666 23.7336 0.604505 23.6118C0.667277 23.4908 0.699583 23.3694 0.701422 23.2476C0.706019 22.9429 0.739704 22.7301 0.802476 22.6091C0.804315 22.4873 0.805695 22.3959 0.806614 22.3349C0.868466 22.2749 0.900312 22.184 0.902151 22.0621C0.964003 22.0021 0.995849 21.9112 0.997688 21.7893C0.998608 21.7284 0.999067 21.6979 0.999067 21.6979C1.06 21.6988 1.09093 21.6688 1.09185 21.6079C1.09277 21.547 1.12415 21.4865 1.186 21.4265C1.24878 21.3055 1.28062 21.2146 1.28154 21.1537C1.34247 21.1546 1.31017 21.276 1.18462 21.5179L1.18049 21.7921C1.11863 21.8521 1.08725 21.9126 1.08633 21.9735L1.17911 21.8835C1.18003 21.8225 1.24326 21.6711 1.3688 21.4292C1.49435 21.1873 1.58896 20.9755 1.65265 20.7936C1.77636 20.6735 1.83867 20.5831 1.83959 20.5221C1.90144 20.4621 1.9633 20.4021 2.02515 20.3421C2.087 20.2821 2.11793 20.2521 2.11793 20.2521C2.11885 20.1911 2.15023 20.1307 2.21208 20.0707C2.213 20.0097 2.24439 19.9493 2.30624 19.8892C2.36901 19.7683 2.46225 19.6478 2.58596 19.5278L2.67873 19.4378C2.6178 19.4368 2.52548 19.4964 2.40178 19.6164C2.40086 19.6774 2.33855 19.7678 2.21484 19.8879C2.21484 19.8879 2.18392 19.9179 2.12206 19.9779C2.37039 19.6769 2.61826 19.4064 2.86567 19.1663C3.11308 18.9263 3.32956 18.7162 3.51512 18.5362C4.13272 17.997 4.6257 17.6387 4.99406 17.4615C5.48612 17.1642 5.94725 16.8969 6.37746 16.6596C6.80767 16.4223 7.20695 16.215 7.5753 16.0377C8.00459 15.8613 8.40341 15.6845 8.77177 15.5072C9.14012 15.33 9.50802 15.1831 9.87545 15.0668C10.2429 14.9504 10.6103 14.8341 10.9778 14.7177C11.3461 14.5405 11.6835 14.3932 11.99 14.2759C13.277 13.8078 14.6244 13.371 16.0323 12.9656C17.502 12.5002 18.9395 12.1562 20.3446 11.9337C19.7962 11.9254 19.3074 12.0094 18.8781 12.1858C18.4497 12.3012 17.8995 12.4148 17.2274 12.5266C18.2678 12.2375 19.4606 11.9508 20.8057 11.6664C22.1509 11.3819 23.526 11.1284 24.9311 10.9058C26.2753 10.6823 27.5277 10.4879 28.6881 10.3226C29.9095 10.1582 30.8563 10.0201 31.5284 9.90836C31.713 9.78926 31.9572 9.76247 32.261 9.828C32.5656 9.8326 32.9317 9.80765 33.3591 9.75315C33.0563 9.62669 32.3251 9.61566 31.1656 9.72005C31.3493 9.66187 31.533 9.6037 31.7167 9.54553C31.9623 9.42734 31.6881 9.4232 30.8941 9.53311C31.3225 9.41769 31.8418 9.3341 32.4521 9.28236C33.1242 9.17061 33.8572 9.05978 34.6511 8.94987C35.4442 8.90089 36.2372 8.85191 37.0303 8.80294C37.8233 8.75396 38.5559 8.67359 39.228 8.56184C38.9243 8.49631 38.7724 8.46355 38.7724 8.46355C38.7733 8.40261 38.8051 8.31167 38.8679 8.19073C39.4782 8.13899 40.1794 8.1191 40.9715 8.13105C41.7645 8.08208 42.4052 8.0308 42.8936 7.97722C43.5648 7.9264 43.9913 7.93284 44.1732 7.99653C44.416 8.06114 44.9339 8.06896 45.727 8.01998C46.5819 7.91099 47.6801 7.83614 49.0215 7.79544C50.3639 7.6938 51.8276 7.62447 53.4128 7.58745C53.3509 7.64746 53.0763 7.67379 52.5888 7.66643C52.1623 7.66 51.7048 7.68357 51.2165 7.73715C53.35 7.7084 55.3317 7.64688 57.1615 7.5526C59.0532 7.39831 61.0658 7.30679 63.1994 7.27804C60.1546 7.1102 56.9861 7.06238 53.6939 7.13459C50.4026 7.14587 47.2023 7.18899 44.0928 7.26396C44.8268 7.0922 45.8945 7.01689 47.296 7.03804C48.7583 7.06011 50.1603 7.05079 51.5017 7.01009L67.8621 7.25699C67.8021 7.19514 67.6198 7.16191 67.3151 7.15731C67.0714 7.15364 66.8277 7.14996 66.5839 7.14628C67.6207 7.10098 68.7793 7.05752 70.0599 7.0159C71.4013 6.97519 72.5895 6.99312 73.6244 7.06969C73.8681 7.07337 73.8986 7.07383 73.7158 7.07107C73.5949 7.0083 73.5953 6.97783 73.7172 6.97967C74.0837 6.92425 74.4498 6.89931 74.8154 6.90482C75.181 6.91034 75.5466 6.91586 75.9122 6.92137L77.0089 6.93793L77.1917 6.94069L77.3759 6.85205C77.4368 6.85297 77.3145 6.88159 77.0089 6.93793C76.7652 6.93425 76.7652 6.93425 77.0089 6.93793L77.1017 6.84791L77.6501 6.85618C78.3822 6.80628 79.1139 6.78685 79.8451 6.79789C80.6381 6.74891 81.4012 6.669 82.1342 6.55817C83.6593 6.4593 85.1536 6.39043 86.6169 6.35156C88.142 6.25269 89.6977 6.15427 91.2838 6.05631L95.9493 5.85246C96.7432 5.74255 97.5058 5.69311 98.237 5.70415C99.03 5.65517 99.8231 5.60619 100.616 5.55721C102.202 5.45925 103.757 5.3913 105.282 5.35336C106.867 5.31633 108.452 5.24884 110.039 5.15089C110.892 5.10283 111.685 5.08432 112.416 5.09535C113.209 5.04637 114.033 4.99785 114.887 4.94979C115.741 4.90173 116.533 4.88322 117.265 4.89426C118.058 4.84528 118.881 4.79676 119.735 4.7487C121.321 4.65074 122.937 4.61418 124.582 4.63901C126.228 4.6029 127.875 4.53633 129.522 4.43929L134.461 4.23958C135.315 4.19152 136.138 4.17347 136.931 4.18542C137.723 4.19738 138.546 4.17932 139.4 4.13126C141.108 4.03515 142.784 3.9995 144.429 4.02433C146.076 3.98822 147.752 3.95258 149.459 3.91739C163.054 3.63499 176.8 3.47675 190.697 3.44268C204.654 3.40953 218.822 3.56239 233.2 3.90127C233.075 4.08223 232.465 4.16444 231.368 4.14788C232.404 4.16352 233.47 4.17961 234.567 4.19616C235.664 4.21271 236.79 4.26019 237.947 4.33859L244.619 4.43928L251.566 4.54411L255.039 4.59653C255.586 4.66574 256.134 4.70448 256.683 4.71276C257.292 4.72195 257.871 4.73069 258.419 4.73896C258.358 4.73804 258.206 4.73574 257.962 4.73207C257.719 4.72839 257.475 4.69424 257.232 4.62963C259.607 4.78736 262.073 4.916 264.632 5.01555C267.191 5.05417 269.841 5.12464 272.582 5.22696C275.322 5.3902 278.062 5.55345 280.802 5.71669C283.604 5.81992 286.436 5.95408 289.298 6.11917L291.401 6.15089C291.643 6.2155 292.009 6.25148 292.496 6.25884L293.501 6.27401C294.232 6.34598 294.931 6.41749 295.601 6.48854C296.332 6.49957 297.063 6.54107 297.793 6.61304C299.194 6.69512 300.564 6.77674 301.903 6.85791C303.304 6.93999 304.704 7.05254 306.103 7.19556C306.774 7.20567 307.443 7.24625 308.113 7.3173C308.844 7.32833 309.544 7.36937 310.214 7.44042C310.517 7.50595 310.852 7.54148 311.218 7.54699C311.583 7.55251 311.918 7.55757 312.223 7.56217C312.466 7.62678 312.831 7.66276 313.318 7.67012ZM39.566 10.3953C39.3223 10.3917 38.9562 10.4166 38.4678 10.4702C37.9804 10.4628 37.4925 10.4859 37.0041 10.5395C36.5157 10.5931 36.1187 10.6481 35.8131 10.7044C35.5085 10.6998 35.4171 10.6984 35.5389 10.7002C35.9045 10.7058 36.3311 10.7122 36.8185 10.7196C37.3069 10.666 37.7648 10.6119 38.1923 10.5575C38.6197 10.503 38.9553 10.4775 39.199 10.4812C39.5046 10.4249 39.6269 10.3963 39.566 10.3953ZM35.8338 9.3334C35.1626 9.38422 34.6743 9.43779 34.3687 9.49413C34.1249 9.49045 33.8808 9.51724 33.6361 9.57449C34.1245 9.52092 34.5819 9.49735 35.0085 9.50378C35.435 9.51022 35.7101 9.45343 35.8338 9.3334ZM26.6663 11.0234C25.9942 11.1352 25.3831 11.2479 24.8328 11.3615C24.2835 11.4141 23.8251 11.4986 23.4577 11.615C24.8619 11.4533 26.1142 11.2589 27.2147 11.0317C27.7649 10.9181 28.3147 10.835 28.864 10.7824C29.4743 10.7306 30.1459 10.6493 30.879 10.5385C31.0627 10.4803 31.1241 10.4508 31.0631 10.4499C31.0631 10.4499 30.9103 10.478 30.6048 10.5344C29.9327 10.6461 29.261 10.7274 28.5898 10.7782C27.9796 10.83 27.3384 10.9117 26.6663 11.0234ZM24.0947 11.8074C23.4226 11.9192 22.8419 12.0323 22.3526 12.1468C21.9243 12.2622 21.8015 12.3213 21.9843 12.3241C22.3517 12.2077 22.8101 12.1232 23.3594 12.0706C23.9087 12.0179 24.489 11.9353 25.1001 11.8226C25.6504 11.709 26.1692 11.6559 26.6567 11.6632C27.145 11.6097 27.5425 11.5242 27.849 11.407C27.4225 11.4005 26.8427 11.4527 26.1096 11.5636C25.4385 11.6144 24.7668 11.6957 24.0947 11.8074ZM13.073 15.2065C13.1349 15.1465 13.0744 15.1151 12.8916 15.1123C12.7088 15.1095 12.6484 15.0782 12.7102 15.0182C12.099 15.1308 11.7011 15.2467 11.5165 15.3658C11.3928 15.4858 11.1777 15.6045 10.8712 15.7218L13.073 15.2065ZM15.0062 14.3214C15.2518 14.2033 15.4364 14.0841 15.5601 13.9641C15.6829 13.905 15.7748 13.8759 15.8357 13.8769C15.8976 13.8168 16.0208 13.7273 16.2054 13.6082C16.2664 13.6091 16.4806 13.5514 16.848 13.435C16.9699 13.4369 17.3364 13.3815 17.9475 13.2688C17.642 13.3251 17.4892 13.3533 17.4892 13.3533C17.4901 13.2924 17.521 13.2624 17.5819 13.2633C17.7047 13.2042 17.7661 13.1746 17.7661 13.1746C17.767 13.1137 17.6152 13.0809 17.3105 13.0763C16.9431 13.1927 16.5452 13.3086 16.1168 13.424C15.7503 13.4794 15.3224 13.5644 14.8331 13.6789C14.4047 13.7943 13.9759 13.9402 13.5466 14.1166C13.1182 14.232 12.6899 14.3474 12.2615 14.4629C11.4038 14.7546 10.6685 15.0178 10.0555 15.2523C9.44157 15.5478 9.04183 15.7856 8.85627 15.9656C9.16277 15.8483 9.43881 15.7306 9.68438 15.6124C9.99088 15.4952 10.2669 15.3774 10.5125 15.2592L11.8918 14.7315C12.6885 14.4388 13.8817 14.1216 15.4715 13.7799C15.5315 13.8418 15.2245 13.9895 14.5506 14.2231C14.2441 14.3404 13.9685 14.4277 13.7239 14.4849C13.4792 14.5422 13.3564 14.6013 13.3555 14.6622C14.2723 14.4932 14.8225 14.3796 15.0062 14.3214ZM16.9228 14.5332C16.4335 14.6477 16.1575 14.7654 16.0947 14.8864C16.032 15.0073 16.2148 15.0101 16.6431 14.8947C16.5222 14.8319 16.5536 14.7714 16.7373 14.7132C16.9819 14.656 17.0438 14.596 16.9228 14.5332ZM20.6702 14.5898C21.7698 14.4235 22.6874 14.1936 23.4232 13.8999C23.2404 13.8972 23.0572 13.9249 22.8734 13.9831C22.6906 13.9803 22.7525 13.9203 23.059 13.803C22.3869 13.9148 21.8981 13.9988 21.5925 14.0552C21.2878 14.0506 21.0745 14.0473 20.9527 14.0455C20.769 14.1037 20.5857 14.1314 20.4029 14.1286C20.2201 14.1259 19.8841 14.1817 19.3948 14.2962C20.0059 14.1836 20.2806 14.1573 20.2187 14.2173C20.1569 14.2773 19.9732 14.3355 19.6676 14.3918C19.3611 14.5091 18.9632 14.6249 18.4739 14.7395C17.9855 14.793 17.589 14.8175 17.2843 14.8129C17.2825 14.9348 17.2506 15.0257 17.1888 15.0857C17.1278 15.0848 16.8518 15.2025 16.3607 15.4389C17.2165 15.269 17.9804 15.1282 18.6525 15.0164C19.3865 14.8446 20.059 14.7024 20.6702 14.5898ZM35.0654 11.7901C35.5538 11.7366 36.0112 11.713 36.4378 11.7194C36.9261 11.6659 37.2622 11.61 37.4459 11.5518C36.2863 11.6562 35.4928 11.7356 35.0654 11.7901ZM37.8115 11.5573C38.3008 11.4428 39.0024 11.3925 39.9164 11.4063C40.8923 11.36 41.503 11.2778 41.7486 11.1596C40.8336 11.2068 40.0711 11.2562 39.4608 11.308C38.8506 11.3597 38.3008 11.4428 37.8115 11.5573ZM36.3588 10.8955C37.7621 10.7947 39.1958 10.6945 40.66 10.5947C42.1852 10.4958 43.6799 10.3965 45.1441 10.2967C43.3761 10.3309 41.76 10.398 40.2958 10.4978C38.8316 10.5976 37.3978 10.6978 35.9945 10.7985C34.7741 10.902 33.614 11.0369 32.5145 11.2031C31.4159 11.3084 30.3477 11.4142 29.31 11.5204C29.31 11.5204 29.3409 11.4904 29.4028 11.4304C29.3409 11.4904 29.2491 11.5195 29.1272 11.5177C29.0053 11.5158 28.883 11.5445 28.7602 11.6036C28.6993 11.6026 28.6079 11.6013 28.486 11.5994C27.9986 11.5921 27.3274 11.6429 26.4725 11.7519C25.6785 11.8618 24.8541 11.9712 23.9992 12.0802C23.5108 12.1338 23.0529 12.1879 22.6254 12.2423C22.198 12.2968 21.7701 12.3818 21.3417 12.4972C20.9143 12.5517 20.5173 12.6067 20.1508 12.6621C19.7843 12.7175 19.4482 12.7734 19.1426 12.8297C19.9366 12.7198 20.7606 12.6408 21.6145 12.5928C22.4685 12.5447 23.3234 12.4357 24.1792 12.2658C24.4848 12.2095 24.7285 12.2131 24.9104 12.2768C25.1542 12.2805 25.4288 12.2542 25.7344 12.1978C26.4065 12.0861 27.0177 11.9734 27.5679 11.8598C28.1181 11.7462 28.6379 11.6322 29.1272 11.5177L29.31 11.5204C29.1872 11.5795 29.1868 11.61 29.3086 11.6118C29.4305 11.6137 29.6442 11.5864 29.9498 11.5301C30.2554 11.4738 30.5605 11.4479 30.8652 11.4525C31.2317 11.3971 31.4754 11.4008 31.5964 11.4635C30.9252 11.5143 30.284 11.5961 29.6728 11.7088C29.0626 11.7605 28.5747 11.7836 28.2091 11.7781C28.3291 11.9018 28.7547 11.9692 29.4859 11.9802C30.2817 11.7484 31.2598 11.5499 32.4203 11.3845C33.6417 11.2201 34.9546 11.0571 36.3588 10.8955ZM45.8091 14.6949C46.1756 14.6395 46.6326 14.6464 47.1801 14.7156C47.7894 14.7248 48.0341 14.6675 47.914 14.5438C47.4875 14.5374 47.0305 14.5305 46.5431 14.5231C46.1165 14.5167 45.8719 14.5739 45.8091 14.6949ZM9.69164 21.1892C9.93721 21.071 9.99906 21.011 9.8772 21.0091C9.63347 21.0054 9.38881 21.0627 9.14324 21.1809C8.89675 21.36 8.86537 21.4205 9.04909 21.3623C9.23281 21.3041 9.44699 21.2464 9.69164 21.1892ZM32.9429 19.1631C33.1894 18.984 33.0993 18.8912 32.6728 18.8848C32.1835 18.9993 31.6642 19.0829 31.1149 19.1355C30.5665 19.1273 30.2 19.1827 30.0153 19.3018C30.5037 19.2482 30.9917 19.2251 31.4791 19.2325C31.9666 19.2398 32.4545 19.2167 32.9429 19.1631ZM28.8258 19.3753C29.3742 19.3835 29.954 19.3313 30.5651 19.2187C31.2381 19.046 31.5446 18.9287 31.4846 18.8669C31.1781 18.9841 30.7198 19.0686 30.1095 19.1204C29.5602 19.173 29.1323 19.258 28.8258 19.3753ZM32.0413 18.3267C31.2473 18.4367 30.6976 18.5198 30.392 18.5761C30.1482 18.5724 30.0873 18.5715 30.2092 18.5734C30.331 18.5752 30.5443 18.5784 30.849 18.583C31.2155 18.5276 31.6129 18.4422 32.0413 18.3267ZM19.0268 20.5073C20.0044 20.3392 20.9203 20.2311 21.7743 20.183C22.6292 20.074 23.3013 19.9623 23.7906 19.8478C23.5459 19.905 23.1794 19.9605 22.691 20.014C22.2035 20.0067 21.6852 20.0293 21.1358 20.082C20.6465 20.1965 20.1882 20.281 19.7607 20.3355C19.3951 20.33 19.1505 20.3872 19.0268 20.5073ZM20.496 20.0723C21.1072 19.9597 21.7175 19.9079 22.3268 19.9171C22.937 19.8654 23.5173 19.7827 24.0675 19.6691C23.8238 19.6654 23.5187 19.6913 23.1521 19.7467C22.8475 19.7421 22.5119 19.7675 22.1454 19.823C21.8398 19.8793 21.5342 19.9356 21.2286 19.992C20.924 19.9874 20.6798 20.0142 20.496 20.0723ZM26.0852 19.2425C25.5359 19.2951 25.3826 19.3538 25.6254 19.4184C25.8692 19.4221 26.1434 19.4262 26.448 19.4308C26.6317 19.3726 26.815 19.3449 26.9978 19.3477C27.1815 19.2895 27.4871 19.2332 27.9145 19.1787C27.7918 19.2378 27.5162 19.325 27.0878 19.4404C26.6604 19.4949 26.6294 19.5249 26.995 19.5305C27.3015 19.4132 27.729 19.3587 28.2774 19.367C28.8267 19.3143 29.1937 19.2284 29.3783 19.1093C28.9518 19.1029 28.7385 19.0997 28.7385 19.0997C29.2278 18.9852 29.7776 18.902 30.3878 18.8503C31.059 18.7995 31.5174 18.715 31.763 18.5968C30.4825 18.6384 29.2315 18.7414 28.0101 18.9058C26.7896 19.0093 25.6605 19.1142 24.6228 19.2204C25.1721 19.1677 25.5391 19.0819 25.7237 18.9628C25.2963 19.0173 24.8384 19.0713 24.35 19.1249C23.9235 19.1184 23.7093 19.1761 23.7074 19.298C23.9512 19.3017 24.2863 19.3067 24.7128 19.3132C25.2012 19.2596 25.6587 19.236 26.0852 19.2425ZM29.8229 19.9388C30.3113 19.8852 30.8297 19.8626 31.3781 19.8709C31.9874 19.8801 32.6281 19.8288 33.3002 19.717L33.303 19.5342C32.0825 19.6377 30.8929 19.7112 29.7343 19.7546C28.6365 19.799 27.6593 19.9366 26.8026 20.1675C27.2919 20.053 27.7803 19.9994 28.2677 20.0068C28.7552 20.0141 29.2736 19.9915 29.8229 19.9388ZM29.3231 22.7653C30.1771 22.7172 30.7564 22.6955 31.0611 22.7001C31.3667 22.6438 31.489 22.6151 31.4281 22.6142C31.3681 22.5524 30.6664 22.6027 29.3231 22.7653ZM27.5034 22.1893C28.9003 22.5151 31.0943 22.5178 34.0855 22.1972C33.8418 22.1935 33.5062 22.219 33.0788 22.2735C32.7132 22.2679 32.3781 22.2629 32.0734 22.2583C31.7069 22.3137 31.4627 22.3405 31.3408 22.3386C31.219 22.3368 31.3417 22.2777 31.7092 22.1614C30.8552 22.2094 30.1235 22.2289 29.5142 22.2197C28.9058 22.1495 28.2355 22.1394 27.5034 22.1893ZM32.9115 27.299C33.218 27.1818 33.5541 27.1259 33.9197 27.1314C34.2862 27.076 34.7141 26.991 35.2034 26.8765C34.3485 26.9855 33.555 27.065 32.8229 27.1148C32.1517 27.1657 31.2973 27.2442 30.2596 27.3504C30.1368 27.4095 30.1363 27.44 30.2582 27.4418C30.3801 27.4437 30.5324 27.446 30.7152 27.4487C30.898 27.4515 31.0503 27.4538 31.1722 27.4556C31.3559 27.3974 31.4473 27.3988 31.4464 27.4598C30.9589 27.4524 30.6538 27.4783 30.531 27.5374C30.4082 27.5965 30.3459 27.6869 30.3441 27.8088C30.9552 27.6961 31.4441 27.6121 31.8106 27.5567C32.238 27.5022 32.605 27.4163 32.9115 27.299ZM51.6828 25.2968C51.3181 25.2304 50.9525 25.2248 50.586 25.2803C50.2204 25.2747 49.7939 25.2683 49.3064 25.2609C49.3064 25.2609 49.4283 25.2628 49.672 25.2665C49.9776 25.2101 50.2827 25.1843 50.5874 25.1889C50.8921 25.1935 51.1358 25.1971 51.3186 25.1999C51.5623 25.2036 51.6837 25.2359 51.6828 25.2968ZM77.8088 20.5716C78.8447 20.5872 80.1243 20.6065 81.6476 20.6295C83.2327 20.5925 84.4523 20.5499 85.3063 20.5019C83.9048 20.4807 82.5643 20.4605 81.2847 20.4412C80.0051 20.4219 78.8465 20.4653 77.8088 20.5716ZM81.1075 20.0728C82.8736 20.1604 83.6352 20.1719 83.3924 20.1073C83.1505 19.9818 82.3889 19.9703 81.1075 20.0728ZM85.0376 20.1321C85.5869 20.0795 86.1353 20.0878 86.6828 20.157C87.2303 20.2262 87.6877 20.2026 88.0552 20.0863C87.384 20.1371 86.8051 20.1283 86.3186 20.0601C85.832 19.9918 85.4051 20.0158 85.0376 20.1321ZM99.8526 19.8072C100.889 19.7619 101.895 19.7771 102.869 19.8527C103.905 19.8683 104.819 19.8517 105.612 19.8027C105.246 19.7972 104.698 19.7889 103.967 19.7779C103.236 19.7668 102.505 19.7558 101.773 19.7448C101.042 19.7337 100.463 19.7555 100.035 19.81C99.6088 19.8035 99.5479 19.8026 99.8526 19.8072ZM95.9334 19.0167C97.0311 18.9723 98.2198 18.9598 99.4994 18.9791C100.841 18.9384 102.151 18.9277 103.431 18.947C104.771 18.9672 106.051 18.9561 107.271 18.9135C108.552 18.8719 109.711 18.798 110.748 18.6917C109.163 18.7288 107.578 18.7353 105.994 18.7114C104.41 18.6875 102.764 18.6932 101.057 18.7283C100.57 18.721 100.082 18.7441 99.5935 18.7977C99.1061 18.7903 98.6186 18.783 98.1311 18.7756C97.6437 18.7682 97.1558 18.7914 96.6674 18.8449C96.2408 18.8385 95.7834 18.8621 95.295 18.9156C94.3192 18.9619 93.4043 19.009 92.5503 19.0571C91.6972 19.0442 90.9051 19.0322 90.1739 19.0212C90.113 19.0203 90.1434 19.0207 90.2653 19.0226C90.449 18.9644 90.3276 18.9321 89.9011 18.9257C88.6815 18.9682 87.0959 19.0357 85.1442 19.1281C83.2544 19.1606 81.3945 19.2239 79.5647 19.3182C80.4778 19.3929 81.5441 19.409 82.7637 19.3665C84.0442 19.3248 85.1105 19.3409 85.9626 19.4147C84.4993 19.4536 83.1279 19.4634 81.8483 19.4441C80.6297 19.4257 79.4105 19.4378 78.191 19.4803L77.3684 19.4679L77.1856 19.4651L77.0942 19.4637L77.0028 19.4624L76.7286 19.4582L76.2716 19.4513L74.535 19.4251C73.9257 19.4159 73.3163 19.4067 72.707 19.3975C72.1586 19.3893 71.5488 19.4105 70.8777 19.4613C71.3651 19.4687 71.7916 19.4751 72.1572 19.4807C72.5838 19.4871 72.857 19.5522 72.9771 19.6759C71.5174 19.471 69.7818 19.3839 67.7701 19.4145C65.8193 19.446 64.1423 19.5121 62.739 19.6128C64.2005 19.6958 65.7533 19.7802 67.3976 19.8659C69.0419 19.9517 70.7471 20.0384 72.5132 20.126C72.9397 20.1324 73.3658 20.1693 73.7914 20.2367C74.2179 20.2431 74.6444 20.2496 75.071 20.256L76.442 20.2767L77.1718 20.3791L77.9957 20.3001C78.8488 20.313 79.7019 20.3259 80.5549 20.3387C81.4698 20.2916 82.3543 20.244 83.2083 20.196C82.7208 20.1886 82.111 20.2099 81.3789 20.2598C80.7086 20.2497 80.0384 20.2395 79.3681 20.2294C79.0635 20.2248 78.7583 20.2507 78.4527 20.307C78.1481 20.3024 77.8439 20.2674 77.5401 20.2018L77.4487 20.2005L77.3573 20.1991L77.1745 20.1963L77.0831 20.1949L76.9003 20.1922L76.5347 20.1867C76.4129 20.1848 76.3215 20.1834 76.2605 20.1825C76.2005 20.1207 76.1401 20.0893 76.0791 20.0884L76.7189 20.098L77.0845 20.1035L77.1759 20.1049L77.3587 20.1077L77.4501 20.1091L77.6329 20.1118L78.7297 20.1284C79.0953 20.1339 79.4609 20.1394 79.8265 20.1449C80.193 20.0895 80.5286 20.0641 80.8333 20.0687L78.4569 20.0328L77.4515 20.0177L77.3601 20.0163L77.1773 20.0135L77.0859 20.0121C77.0868 19.9512 77.0263 19.9198 76.9045 19.918L76.6303 19.9138L76.9959 19.9194L77.0873 19.9207L77.1787 19.9221L77.3615 19.9249L77.5443 19.9276C77.788 19.9313 78.0017 19.9041 78.1854 19.8459L79.465 19.8652C79.8916 19.8716 80.2876 19.8776 80.6532 19.8831C81.0797 19.8896 81.4763 19.8651 81.8428 19.8097L85.6815 19.8676C85.316 19.8621 84.8894 19.8556 84.402 19.8483C83.9145 19.8409 83.8226 19.87 84.1264 19.9355C84.8576 19.9466 85.6497 19.9585 86.5028 19.9714C87.4177 19.9243 88.3017 19.9071 89.1547 19.92C90.0078 19.9329 90.7999 19.9448 91.5311 19.9559C92.3241 19.9069 92.9953 19.8561 93.5446 19.8034C93.4237 19.7407 93.1495 19.7365 92.722 19.791C92.2946 19.8455 92.0509 19.8418 91.9909 19.78C93.1495 19.7365 94.0639 19.7198 94.7342 19.73C95.4654 19.741 96.2584 19.692 97.1133 19.583C96.7477 19.5775 96.3512 19.602 95.9238 19.6565C95.5582 19.651 95.3458 19.5868 95.2867 19.464C95.7742 19.4714 95.9875 19.4746 95.9265 19.4737C95.9275 19.4128 96.1416 19.355 96.5691 19.3005C98.4589 19.2681 100.256 19.2952 101.962 19.3819C103.729 19.4086 105.466 19.3739 107.174 19.2777C105.895 19.2584 104.524 19.2377 103.061 19.2157C101.599 19.1936 100.136 19.202 98.6726 19.2409L96.4791 19.2078C96.1125 19.2632 95.7465 19.2881 95.3809 19.2826C95.0762 19.278 94.7411 19.273 94.3755 19.2674C93.7052 19.2573 93.0345 19.2777 92.3633 19.3285C91.6931 19.3184 91.0533 19.3087 90.444 19.2995C90.8714 19.245 91.3898 19.2224 91.9991 19.2316C92.6694 19.2417 93.3396 19.2518 94.0099 19.2619C94.6811 19.2111 95.3518 19.1908 96.0221 19.2009C96.6923 19.211 97.2716 19.1893 97.76 19.1357C97.3335 19.1292 96.9679 19.1237 96.6632 19.1191C96.4204 19.0545 96.1772 19.0204 95.9334 19.0167ZM154.601 20.6334L156.246 20.6582L159.536 20.7079C160.694 20.7254 161.76 20.7415 162.735 20.7562C163.772 20.7109 164.717 20.6642 165.571 20.6161C164.414 20.5987 163.316 20.6126 162.28 20.6579C161.305 20.6432 160.299 20.628 159.263 20.6124L156.247 20.5668C155.759 20.6204 155.24 20.6431 154.692 20.6348C154.205 20.6274 153.687 20.6196 153.138 20.6113L154.601 20.6334ZM145.626 21.6864C150.199 21.5117 154.711 21.3969 159.161 21.3422C163.612 21.2265 168.063 21.1108 172.513 20.9952C167.942 21.0481 163.4 21.1319 158.888 21.2466C154.438 21.3014 149.926 21.4161 145.353 21.5909C144.255 21.6353 143.127 21.6792 141.968 21.7227C140.871 21.7061 139.774 21.72 138.676 21.7644C138.127 21.8171 137.578 21.8392 137.03 21.831C136.482 21.8227 135.902 21.8444 135.292 21.8962C134.744 21.8879 134.195 21.9101 133.645 21.9627C133.097 21.9545 132.548 21.9766 131.999 22.0293C129.742 22.1171 127.517 22.2054 125.321 22.2942C123.127 22.322 120.932 22.3803 118.736 22.4691C120.932 22.3803 123.157 22.3225 125.413 22.2956C127.669 22.2077 129.925 22.1199 132.182 22.0321C132.73 22.0403 133.278 22.0486 133.827 22.0569C134.376 22.0042 134.956 21.952 135.566 21.9003C136.115 21.9086 136.663 21.9169 137.211 21.9251C137.761 21.8725 138.34 21.8507 138.949 21.8599C140.047 21.8156 141.144 21.8016 142.241 21.8182C143.4 21.7747 144.528 21.7308 145.626 21.6864ZM213.355 4.33315C214.269 4.34694 215.183 4.36074 216.097 4.37453C217.012 4.32739 217.927 4.31072 218.841 4.32451L215.002 4.26658L213.083 4.23761L211.163 4.20865L203.486 4.09278C200.926 4.11509 198.396 4.1074 195.898 4.0697C193.461 4.03292 190.993 4.02614 188.493 4.04937C185.994 4.0726 183.526 4.09629 181.087 4.12044C178.649 4.1446 176.211 4.16875 173.773 4.1929C171.334 4.27798 168.895 4.3326 166.457 4.35675C164.08 4.32088 161.703 4.34595 159.325 4.43196C156.946 4.51796 154.568 4.60396 152.19 4.68997C149.874 4.71596 147.557 4.77241 145.24 4.85933L138.381 5.03008C137.77 5.08182 137.19 5.13402 136.641 5.18667C136.093 5.1784 135.514 5.16966 134.905 5.16047C134.355 5.21312 133.775 5.26532 133.165 5.31706C132.617 5.30878 132.068 5.30051 131.52 5.29223C129.264 5.38007 127.007 5.46791 124.751 5.55576C122.556 5.64452 120.33 5.73282 118.073 5.82066L114.779 6.0452C114.23 6.03693 113.682 6.05912 113.132 6.11177C112.645 6.10442 112.126 6.12707 111.577 6.17973C110.479 6.22411 109.382 6.26849 108.284 6.31287C107.186 6.35725 106.119 6.40209 105.082 6.44739C104.655 6.50189 104.379 6.58915 104.256 6.70917C104.194 6.76918 103.858 6.79459 103.249 6.7854C103.249 6.7854 103.34 6.78678 103.523 6.78954C103.707 6.73136 103.89 6.70366 104.073 6.70641C104.256 6.64824 104.348 6.61915 104.348 6.61915C104.41 6.55914 104.258 6.52637 103.893 6.52086C102.855 6.62709 101.787 6.7024 100.69 6.74678C99.5919 6.79116 98.4942 6.83554 97.3965 6.87992C96.8471 6.93258 96.2978 6.98523 95.7485 7.03789C95.2001 7.02961 94.6817 7.05226 94.1934 7.10584C93.705 7.15942 93.2171 7.18253 92.7296 7.17517C92.3031 7.16873 91.8761 7.19276 91.4486 7.24726C92.2998 7.382 93.4576 7.39947 94.9218 7.29967C96.386 7.19988 97.7584 7.12917 99.0389 7.08755C99.3445 7.03121 99.8019 7.00764 100.411 7.01684C101.082 6.96602 101.753 6.94567 102.423 6.95578C103.156 6.90589 103.796 6.88507 104.344 6.89335C104.954 6.84161 105.382 6.78712 105.627 6.72986C105.627 6.72986 105.565 6.75941 105.442 6.8185C105.381 6.81758 105.29 6.8162 105.168 6.81436C105.107 6.81344 105.107 6.81344 105.168 6.81436C105.229 6.81528 105.412 6.81804 105.717 6.82264C107.423 6.84839 109.191 6.81412 111.02 6.71984C112.85 6.62556 114.619 6.53037 116.327 6.43425C115.718 6.42505 115.017 6.44494 114.224 6.49392C113.431 6.48197 112.639 6.47001 111.847 6.45806C111.116 6.44703 110.385 6.43599 109.654 6.42496C108.922 6.41392 108.313 6.40473 107.826 6.39737C108.68 6.34931 109.503 6.33126 110.295 6.34321C111.149 6.29515 112.002 6.27756 112.855 6.29043C113.281 6.3578 113.677 6.39425 114.042 6.39977C114.469 6.4062 114.895 6.41264 115.322 6.41908L117.79 6.45632C119.557 6.42205 121.509 6.36008 123.643 6.2704C125.779 6.11978 127.883 5.99918 129.957 5.90857C130.872 5.86144 131.786 5.84476 132.7 5.85856C133.676 5.81234 134.621 5.76566 135.536 5.71852C136.451 5.67138 137.365 5.65471 138.279 5.6685C139.194 5.62136 140.14 5.57468 141.116 5.52846C142.944 5.49511 144.773 5.46177 146.602 5.42842C148.492 5.39599 150.382 5.3331 152.273 5.23974C153.188 5.1926 154.103 5.17593 155.017 5.18972C155.992 5.1435 156.937 5.12729 157.851 5.14108C158.766 5.09394 159.681 5.07727 160.595 5.09106C161.57 5.04484 162.516 4.99816 163.431 4.95102C165.321 4.9186 167.18 4.88571 169.009 4.85236C170.899 4.81994 172.789 4.78751 174.678 4.75509C176.507 4.72174 178.336 4.68839 180.165 4.65505C182.055 4.62262 183.945 4.59019 185.835 4.55777C186.749 4.57156 187.663 4.58535 188.577 4.59915C189.491 4.55201 190.437 4.50533 191.413 4.45911L194.155 4.50049C194.643 4.44691 195.101 4.42334 195.527 4.42978C195.954 4.43622 196.411 4.44311 196.898 4.45047C198.788 4.41804 200.647 4.41562 202.475 4.44321C204.304 4.40986 206.133 4.37652 207.961 4.34317C208.875 4.35696 209.789 4.37075 210.703 4.38455C211.618 4.33741 212.502 4.32028 213.355 4.33315ZM223.331 21.7621C222.722 21.7529 222.021 21.7423 221.229 21.7303C220.499 21.6584 219.981 21.6506 219.675 21.7069C220.224 21.7152 220.894 21.7558 221.685 21.8286C222.477 21.8406 223.026 21.8184 223.331 21.7621ZM291.596 23.5236C292.266 23.5337 293.027 23.5757 293.879 23.6495C294.793 23.6633 295.524 23.6743 296.073 23.6826C295.221 23.6088 294.368 23.5655 293.515 23.5526C292.724 23.4797 292.084 23.47 291.596 23.5236Z" fill="#F9D783"/>
</svg>
