<svg width="23" height="26" viewBox="0 0 23 26" fill="none" xmlns="http://www.w3.org/2000/svg">
<path d="M11.5 26C9.90917 26 8.41417 25.6587 7.015 24.9762C5.61583 24.2937 4.39875 23.3675 3.36375 22.1975C2.32875 21.0275 1.50938 19.6517 0.905625 18.07C0.301875 16.4883 0 14.7983 0 13C0 11.2017 0.301875 9.51167 0.905625 7.93C1.50938 6.34833 2.32875 4.9725 3.36375 3.8025C4.39875 2.6325 5.61583 1.70625 7.015 1.02375C8.41417 0.34125 9.90917 0 11.5 0C12.7458 0 13.9246 0.205833 15.0363 0.6175C16.1479 1.02917 17.1733 1.60333 18.1125 2.34L16.445 4.2575C15.7167 3.7375 14.9404 3.33125 14.1163 3.03875C13.2921 2.74625 12.42 2.6 11.5 2.6C8.95083 2.6 6.78021 3.61292 4.98813 5.63875C3.19604 7.66458 2.3 10.1183 2.3 13C2.3 15.8817 3.19604 18.3354 4.98813 20.3612C6.78021 22.3871 8.95083 23.4 11.5 23.4C14.0492 23.4 16.2198 22.3871 18.0119 20.3612C19.804 18.3354 20.7 15.8817 20.7 13C20.7 12.61 20.6808 12.22 20.6425 11.83C20.6042 11.44 20.5467 11.0608 20.47 10.6925L22.3388 8.58C22.5496 9.27333 22.7125 9.98833 22.8275 10.725C22.9425 11.4617 23 12.22 23 13C23 14.7983 22.6981 16.4883 22.0944 18.07C21.4906 19.6517 20.6713 21.0275 19.6363 22.1975C18.6013 23.3675 17.3842 24.2937 15.985 24.9762C14.5858 25.6587 13.0908 26 11.5 26ZM9.89 18.98L5.0025 13.455L6.6125 11.635L9.89 15.34L21.39 2.3075L23 4.1275L9.89 18.98Z" fill="white"/>
</svg>
